# Blender 4.5.12 LTS
# www.blender.org
o BRAVEN_braven_netball_shorts
v -0.123722 0.918264 -0.051271
v -0.128264 0.879249 -0.052985
v -0.144835 0.733839 -0.027561
v -0.139904 0.767510 -0.031578
v -0.132261 0.838570 -0.047920
v -0.134969 0.802045 -0.038830
v -0.112481 0.985100 -0.039577
v -0.118562 0.953373 -0.048347
v -0.033782 0.998844 0.133809
v -0.050634 1.000526 0.128993
v -0.092273 1.005638 0.111046
v -0.070171 1.002010 0.120084
v -0.076802 0.985816 -0.057703
v -0.062117 0.986952 -0.060660
v -0.047687 0.987482 -0.061533
v -0.030556 0.988167 -0.061006
v -0.079045 0.955899 -0.071793
v -0.063622 0.957494 -0.074470
v -0.047558 0.958683 -0.075106
v -0.031352 0.958628 -0.073229
v -0.138931 0.954132 -0.017534
v -0.098077 0.954274 -0.063783
v -0.079430 0.919421 -0.082651
v -0.061038 0.920589 -0.086746
v -0.045423 0.921699 -0.087044
v -0.028545 0.921880 -0.085069
v -0.143388 0.917881 -0.018051
v -0.100139 0.918242 -0.072467
v -0.077993 0.877314 -0.084984
v -0.057401 0.877200 -0.088291
v -0.039955 0.877981 -0.087728
v -0.021539 0.879380 -0.083705
v -0.149478 0.879689 -0.018851
v -0.102392 0.878251 -0.074189
v -0.078233 0.834104 -0.071781
v -0.055604 0.833212 -0.072513
v -0.034828 0.836667 -0.070798
v -0.017449 0.841592 -0.065858
v -0.153674 0.841742 -0.017177
v -0.080367 0.798240 -0.053470
v -0.052354 0.795811 -0.044827
v -0.028647 0.810152 -0.043597
v -0.015591 0.820468 -0.042923
v -0.104645 0.836124 -0.065233
v -0.157715 0.806190 -0.012945
v -0.010971 0.812781 -0.020070
v -0.108113 0.798821 -0.052192
v -0.153063 0.955998 0.015655
v -0.156520 0.956192 0.053197
v -0.140763 0.950117 0.091074
v -0.158002 0.918684 0.017933
v -0.160746 0.917591 0.058594
v -0.145852 0.912527 0.092219
v -0.163551 0.880562 0.021358
v -0.164419 0.882448 0.061736
v -0.149940 0.878887 0.093643
v -0.169328 0.844823 0.023109
v -0.169867 0.849108 0.063736
v -0.154896 0.849755 0.095930
v -0.173696 0.812236 0.025451
v -0.175258 0.818353 0.064911
v -0.087286 0.803474 0.123953
v -0.117582 0.940610 0.110832
v -0.037541 0.924877 0.128235
v -0.054160 0.928853 0.122924
v -0.097533 0.935594 0.116076
v -0.075619 0.933005 0.117051
v -0.121069 0.905417 0.111048
v -0.039675 0.888073 0.118714
v -0.056173 0.891596 0.114175
v -0.098240 0.899341 0.115611
v -0.077687 0.893569 0.113666
v -0.125747 0.873563 0.113423
v -0.033952 0.855739 0.108655
v -0.055097 0.853338 0.103744
v -0.101131 0.867431 0.118484
v -0.079367 0.859037 0.113433
v -0.025189 0.833436 0.100330
v -0.132713 0.845527 0.116093
v -0.056129 0.816891 0.102548
v -0.106553 0.838858 0.123409
v -0.081393 0.828898 0.116770
v -0.094578 0.972197 0.114352
v -0.072562 0.968326 0.120012
v -0.035180 0.961581 0.131827
v -0.118022 0.978971 0.105961
v -0.052658 0.965184 0.127342
v -0.025308 0.816378 0.093559
v -0.010725 0.806535 0.078429
v -0.006282 0.801542 0.029447
v -0.008056 0.806083 -0.005662
v -0.093514 0.984557 -0.051739
v -0.133153 0.986955 -0.013940
v -0.145676 0.989092 0.017093
v -0.134684 0.985666 0.086103
v -0.147728 0.990861 0.052237
v -0.116593 0.813374 0.127528
v -0.062251 0.792273 0.109630
v -0.137090 0.818485 0.119792
v -0.159429 0.820648 0.098992
v -0.036771 0.801051 0.093587
v -0.022084 0.791081 0.080371
v -0.013610 0.786207 0.031479
v -0.017656 0.789939 -0.001414
v -0.041525 0.781754 0.093229
v -0.025040 0.776152 0.080526
v -0.015836 0.769741 0.030786
v -0.020021 0.772014 -0.001750
v -0.024541 0.797214 -0.021059
v -0.029244 0.780064 -0.020781
v -0.087196 0.757653 -0.045216
v -0.059275 0.749311 -0.036406
v -0.088102 0.776650 0.127299
v -0.162336 0.773516 -0.007763
v -0.114911 0.764272 -0.043165
v -0.178069 0.780633 0.028586
v -0.178572 0.787531 0.067113
v -0.116958 0.785008 0.130291
v -0.066581 0.765975 0.114820
v -0.140812 0.788798 0.121985
v -0.162802 0.789617 0.101584
v -0.043694 0.754669 0.095221
v -0.028947 0.745841 0.081171
v -0.038169 0.740695 -0.019827
v -0.093822 0.721992 -0.042382
v -0.091901 0.744765 0.130696
v -0.166223 0.740444 -0.004326
v -0.121494 0.729567 -0.039407
v -0.181507 0.746987 0.030806
v -0.180717 0.753918 0.071858
v -0.120960 0.752899 0.131594
v -0.070905 0.733507 0.118743
v -0.144742 0.756196 0.122885
v -0.164840 0.755798 0.105481
v -0.011114 0.799328 0.055421
v -0.014777 0.786629 0.056559
v -0.016831 0.771276 0.056426
v -0.169466 0.690522 0.001053
v -0.183542 0.696314 0.036310
v -0.181717 0.703107 0.076838
v -0.165216 0.706101 0.110040
v -0.145698 0.707617 0.125060
v -0.011897 0.988139 -0.060273
v -0.012247 0.956046 -0.068895
v -0.008947 0.919227 -0.076022
v -0.005003 0.878799 -0.073845
v -0.002815 0.844859 -0.056126
v -0.000830 0.828026 -0.035696
v 0.001998 0.818919 -0.021709
v -0.002951 0.808394 -0.007196
v -0.003830 0.802691 0.028626
v -0.005715 0.803096 0.052692
v -0.008434 0.805108 0.077576
v -0.009154 0.812820 0.092375
v -0.016454 0.830777 0.100648
v -0.018677 0.853330 0.109954
v -0.021093 0.884972 0.122070
v -0.019996 0.921466 0.131046
v -0.018014 0.958418 0.133515
v -0.017673 0.995929 0.135121
v 0.123722 0.918264 -0.051271
v 0.128264 0.879249 -0.052985
v 0.144835 0.733839 -0.027561
v 0.139904 0.767510 -0.031578
v 0.132261 0.838570 -0.047920
v 0.134969 0.802045 -0.038830
v 0.112481 0.985100 -0.039577
v 0.118562 0.953373 -0.048347
v 0.000304 0.994973 0.134638
v 0.033706 0.998839 0.133828
v 0.050904 1.000562 0.128713
v 0.091470 1.005521 0.111324
v 0.070375 1.002036 0.119835
v 0.076802 0.985816 -0.057703
v 0.062117 0.986952 -0.060660
v 0.047687 0.987482 -0.061533
v 0.030556 0.988167 -0.061006
v 0.079031 0.955901 -0.071796
v 0.062475 0.957440 -0.074677
v 0.048550 0.958839 -0.075028
v 0.031352 0.958628 -0.073229
v -0.001094 0.955259 -0.064464
v 0.138873 0.954268 -0.017522
v 0.099660 0.953756 -0.062950
v 0.079430 0.919421 -0.082651
v 0.061038 0.920589 -0.086746
v 0.045423 0.921699 -0.087044
v 0.026591 0.921596 -0.084542
v 0.143388 0.917881 -0.018051
v 0.100139 0.918242 -0.072467
v 0.077993 0.877314 -0.084984
v 0.057401 0.877200 -0.088291
v 0.039955 0.877981 -0.087728
v 0.021539 0.879380 -0.083705
v 0.149481 0.879466 -0.018930
v 0.101831 0.877248 -0.074592
v 0.078233 0.834104 -0.071781
v 0.055604 0.833212 -0.072513
v 0.034828 0.836667 -0.070798
v 0.017449 0.841592 -0.065858
v 0.153674 0.841742 -0.017177
v 0.080367 0.798240 -0.053470
v 0.052354 0.795811 -0.044827
v 0.028647 0.810152 -0.043597
v 0.015401 0.819823 -0.041688
v 0.104645 0.836124 -0.065233
v 0.157715 0.806190 -0.012945
v 0.010971 0.812781 -0.020070
v 0.108113 0.798821 -0.052192
v 0.153332 0.955662 0.015604
v 0.156065 0.956302 0.055364
v 0.140623 0.950099 0.091213
v 0.158002 0.918684 0.017933
v 0.160746 0.917591 0.058594
v 0.145852 0.912527 0.092219
v 0.163551 0.880562 0.021358
v 0.164419 0.882448 0.061736
v 0.149940 0.878887 0.093643
v 0.169328 0.844823 0.023109
v 0.169867 0.849108 0.063736
v 0.154896 0.849755 0.095930
v 0.173696 0.812236 0.025451
v 0.175258 0.818353 0.064911
v 0.084541 0.803391 0.122789
v 0.118170 0.940683 0.110335
v 0.037541 0.924877 0.128235
v 0.054160 0.928853 0.122924
v 0.098105 0.935655 0.115920
v 0.075619 0.933005 0.117051
v 0.121069 0.905417 0.111048
v 0.039675 0.888073 0.118714
v 0.056173 0.891596 0.114175
v 0.098240 0.899341 0.115611
v 0.077687 0.893569 0.113666
v 0.125747 0.873563 0.113423
v 0.033952 0.855739 0.108655
v 0.055097 0.853338 0.103744
v 0.101131 0.867431 0.118484
v 0.079367 0.859037 0.113433
v 0.025189 0.833436 0.100330
v 0.132713 0.845527 0.116093
v 0.056129 0.816891 0.102548
v 0.106553 0.838858 0.123409
v 0.083501 0.829325 0.117664
v 0.094578 0.972197 0.114352
v 0.072562 0.968326 0.120012
v 0.035180 0.961581 0.131827
v 0.114849 0.978063 0.107981
v 0.052658 0.965184 0.127342
v 0.025308 0.816378 0.093559
v 0.010725 0.806535 0.078429
v 0.006282 0.801542 0.029447
v 0.008056 0.806083 -0.005662
v 0.093514 0.984557 -0.051739
v 0.133153 0.986955 -0.013941
v 0.145676 0.989092 0.017093
v 0.134684 0.985666 0.086103
v 0.147344 0.990845 0.054285
v 0.116593 0.813374 0.127528
v 0.062251 0.792273 0.109630
v 0.137090 0.818485 0.119792
v 0.159429 0.820648 0.098992
v 0.036771 0.801051 0.093587
v 0.022084 0.791081 0.080371
v 0.013610 0.786207 0.031479
v 0.017656 0.789939 -0.001414
v 0.041525 0.781754 0.093229
v 0.025040 0.776152 0.080526
v 0.015836 0.769741 0.030786
v 0.020021 0.772014 -0.001750
v 0.024541 0.797214 -0.021059
v 0.029244 0.780064 -0.020781
v 0.087196 0.757653 -0.045216
v 0.059275 0.749311 -0.036406
v 0.088102 0.776650 0.127299
v 0.162336 0.773515 -0.007763
v 0.114911 0.764272 -0.043165
v 0.178069 0.780633 0.028586
v 0.178572 0.787531 0.067113
v 0.120200 0.784960 0.129866
v 0.066581 0.765975 0.114820
v 0.140812 0.788798 0.121985
v 0.162802 0.789617 0.101584
v 0.043694 0.754669 0.095221
v 0.028947 0.745841 0.081171
v 0.038169 0.740695 -0.019827
v 0.093822 0.721992 -0.042382
v 0.091901 0.744765 0.130696
v 0.166223 0.740444 -0.004326
v 0.121494 0.729567 -0.039407
v 0.181507 0.746987 0.030806
v 0.180717 0.753918 0.071858
v 0.120960 0.752899 0.131594
v 0.070905 0.733507 0.118743
v 0.142562 0.756016 0.124101
v 0.164840 0.755798 0.105481
v 0.011114 0.799328 0.055421
v 0.014777 0.786629 0.056559
v 0.016831 0.771276 0.056426
v 0.169466 0.690522 0.001053
v 0.183542 0.696314 0.036310
v 0.181717 0.703107 0.076838
v 0.165216 0.706101 0.110040
v 0.145698 0.707617 0.125060
v 0.011897 0.988139 -0.060273
v 0.012247 0.956046 -0.068895
v 0.008947 0.919227 -0.076022
v 0.005003 0.878799 -0.073845
v 0.002815 0.844859 -0.056126
v 0.000830 0.828026 -0.035696
v -0.001998 0.818919 -0.021709
v 0.002951 0.808394 -0.007196
v 0.003830 0.802691 0.028626
v 0.005715 0.803096 0.052692
v 0.008434 0.805108 0.077576
v 0.009154 0.812820 0.092375
v 0.016454 0.830777 0.100648
v 0.020089 0.852906 0.109701
v 0.021093 0.884972 0.122070
v 0.019996 0.921466 0.131046
v 0.018014 0.958418 0.133515
v 0.017744 0.995930 0.135121
v 0.000352 0.986266 -0.058686
v -0.000781 0.917636 -0.068979
v -0.001316 0.878266 -0.066346
v -0.001143 0.841977 -0.049398
v 0.001694 0.827999 -0.031868
v 0.001706 0.817560 -0.019263
v 0.000311 0.919152 0.131568
v 0.000369 0.883089 0.122396
v 0.001436 0.850569 0.109533
v 0.001436 0.827715 0.100183
v 0.000253 0.956704 0.134018
v 0.002714 0.812852 0.095987
v 0.003172 0.803145 0.077822
v 0.000547 0.803583 0.028492
v -0.001296 0.808069 -0.004777
v 0.001759 0.803448 0.053152
v -0.082406 0.786778 -0.050692
v 0.167428 0.689872 -0.002204
v 0.087706 0.719882 -0.041926
v 0.062271 0.729251 0.112216
v 0.125775 0.704577 0.132399
v 0.071829 0.726286 0.119433
v 0.094326 0.717782 -0.042064
v -0.172360 0.822627 0.024468
v -0.114740 0.800651 0.129085
v -0.053652 0.776952 -0.040154
v -0.018056 0.762750 0.056773
v -0.042580 0.771689 0.093596
v 0.062315 0.729854 -0.034411
v 0.146114 0.698045 0.124767
v -0.174360 0.823341 0.064721
v -0.064029 0.780484 0.112333
v -0.026581 0.766028 0.080685
v 0.165745 0.690811 0.109378
v 0.020457 0.745441 0.057315
v 0.096006 0.715891 0.132077
v 0.149186 0.696469 -0.023149
v -0.138596 0.809040 0.120654
v -0.016640 0.762329 0.031315
v 0.169454 0.688983 0.001238
v 0.046943 0.735825 0.097143
v -0.134543 0.808659 -0.040534
v -0.159806 0.817876 0.099288
v -0.020846 0.763761 -0.001720
v 0.029447 0.741941 0.081409
v 0.024937 0.742843 0.073045
v 0.018894 0.745360 0.032019
v 0.124618 0.706238 -0.037198
v -0.114469 0.799259 -0.049966
v -0.167106 0.820316 0.088601
v 0.183227 0.683675 0.037422
v 0.024110 0.743365 0.012104
v -0.089581 0.790234 0.126460
v -0.031879 0.768212 -0.021466
v 0.034471 0.739086 -0.015096
v 0.181605 0.684432 0.077550
v -0.156852 0.816900 -0.013890
v -0.108435 0.797056 -0.051652
v 0.038951 0.738039 -0.019442
v 0.125754 0.704809 0.132408
v -0.062315 0.729854 -0.034411
v -0.146114 0.698045 0.124767
v 0.156852 0.816900 -0.013890
v 0.108435 0.797056 -0.051652
v -0.165745 0.690811 0.109378
v -0.020457 0.745441 0.057315
v 0.082406 0.786778 -0.050692
v -0.096006 0.715891 0.132077
v -0.169454 0.688983 0.001238
v -0.046943 0.735825 0.097143
v 0.172360 0.822627 0.024468
v 0.114740 0.800651 0.129085
v 0.053652 0.776952 -0.040154
v 0.042580 0.771689 0.093596
v -0.149186 0.696469 -0.023149
v -0.167717 0.689696 -0.001716
v -0.029447 0.741941 0.081409
v -0.024937 0.742843 0.073045
v -0.018894 0.745360 0.032019
v 0.174360 0.823341 0.064721
v 0.064029 0.780484 0.112333
v 0.026581 0.766028 0.080685
v -0.124618 0.706238 -0.037198
v -0.182827 0.683481 0.035349
v -0.024110 0.743365 0.012104
v 0.134543 0.808659 -0.040534
v 0.138596 0.809040 0.120654
v -0.034471 0.739086 -0.015096
v -0.181605 0.684432 0.077550
v 0.114469 0.799259 -0.049966
v 0.159806 0.817876 0.099288
v -0.038951 0.738039 -0.019442
v 0.167106 0.820316 0.088601
v -0.125754 0.704809 0.132408
v -0.087706 0.719882 -0.041926
v -0.062271 0.729251 0.112216
v -0.125775 0.704577 0.132399
v 0.089581 0.790234 0.126460
v 0.031879 0.768212 -0.021466
v -0.094326 0.717782 -0.042064
v -0.071829 0.726286 0.119433
v 0.018056 0.762750 0.056773
v 0.016640 0.762329 0.031315
v 0.020846 0.763761 -0.001720
v -0.033675 1.006943 0.134153
v -0.059377 1.007492 -0.049961
v -0.088456 1.007272 -0.041556
v -0.108354 1.007073 -0.030450
v 0.099237 1.007121 0.107159
v 0.045533 1.007526 -0.051289
v 0.088456 1.007272 -0.041556
v 0.106794 1.007496 -0.031383
v 0.109046 1.005823 0.104143
v -0.100131 1.006048 0.108376
v -0.045702 1.007478 -0.051190
v -0.111666 1.006678 0.102169
v 0.069686 1.007038 0.119993
v 0.029943 1.007758 -0.052041
v 0.127391 1.007083 -0.009320
v -0.069743 1.006824 0.120057
v -0.000526 1.007632 -0.050198
v -0.029791 1.007717 -0.051957
v -0.127443 1.007274 -0.009385
v -0.000308 1.006717 0.134258
v 0.091207 1.007203 0.111271
v -0.092060 1.007327 0.110976
v 0.139161 1.007303 0.019225
v -0.139171 1.007265 0.019230
v 0.013588 1.007544 -0.051358
v 0.140020 1.007205 0.053669
v -0.140020 1.007205 0.053669
v 0.127597 1.006001 0.083306
v 0.017988 1.006903 0.135477
v -0.013843 1.007569 -0.051420
v -0.127425 1.006685 0.083402
v 0.050192 1.007071 0.129051
v 0.073024 1.007337 -0.047212
v -0.050203 1.006854 0.129092
v -0.073196 1.007304 -0.047124
v -0.017919 1.006902 0.135471
v 0.033602 1.006938 0.134168
v 0.059382 1.007492 -0.049959
v 0.045273 1.000170 0.130488
v 0.045194 0.926492 0.126372
v 0.041793 0.742271 -0.024330
v 0.047244 0.808554 0.096256
v 0.042096 0.801165 -0.042613
v 0.043447 0.789253 -0.037925
v 0.044812 0.916537 -0.088022
v 0.044765 0.921731 -0.087078
v 0.043693 0.755095 0.095216
v 0.045179 0.958696 -0.074846
v 0.044289 0.853467 0.105632
v 0.043543 0.754594 0.095155
v 0.045549 0.784022 0.095083
v 0.045134 0.834185 -0.071923
v 0.045236 0.987546 -0.061468
v 0.044998 0.889779 0.117807
v 0.045242 0.963532 0.129440
v 0.044645 0.877708 -0.088042
v 0.048636 0.821198 0.098168
v 0.042180 0.737353 0.094728
v 0.042447 0.736417 -0.022362
v 0.045128 0.772800 0.094797
v 0.042245 0.771429 -0.034067
v 0.045353 1.007062 0.130652
v 0.044999 1.007539 -0.051329
v -0.045194 0.926492 0.126372
v -0.041793 0.742271 -0.024330
v -0.047244 0.808554 0.096256
v -0.042096 0.801165 -0.042613
v -0.043447 0.789253 -0.037925
v -0.044812 0.916537 -0.088022
v -0.044765 0.921731 -0.087078
v -0.043588 0.755347 0.095161
v -0.045355 0.999957 0.130747
v -0.044289 0.853467 0.105632
v -0.043543 0.754594 0.095155
v -0.045549 0.784022 0.095083
v -0.045179 0.958696 -0.074846
v -0.045134 0.834185 -0.071923
v -0.045236 0.987546 -0.061468
v -0.044998 0.889779 0.117807
v -0.045242 0.963532 0.129440
v -0.044645 0.877708 -0.088042
v -0.048636 0.821198 0.098168
v -0.045128 0.772800 0.094797
v -0.042245 0.771429 -0.034067
v -0.042180 0.737353 0.094728
v -0.042447 0.736417 -0.022362
v -0.045168 1.007484 -0.051218
v -0.045364 1.006856 0.130696
v 0.001789 0.820107 -0.023214
v 0.001819 0.818352 -0.020611
v 0.001789 0.820107 -0.023214
v 0.001819 0.818352 -0.020611
v 0.001901 0.818943 -0.021614
v 0.001901 0.818943 -0.021614
vn -0.7537 0.1353 -0.6432
vn -0.7397 0.0384 -0.6718
vn -0.6087 -0.0109 -0.7933
vn -0.5982 -0.0368 -0.8005
vn -0.6909 -0.0726 -0.7193
vn -0.6244 -0.1242 -0.7712
vn -0.6214 0.3495 -0.7013
vn -0.6987 0.2445 -0.6724
vn -0.1721 -0.0405 0.9843
vn -0.3608 0.0021 0.9327
vn -0.3387 0.0982 0.9357
vn -0.3790 0.0476 0.9242
vn -0.2693 0.4403 -0.8565
vn -0.1393 0.4464 -0.8839
vn -0.0300 0.4433 -0.8959
vn 0.0175 0.4071 -0.9132
vn -0.2950 0.3398 -0.8930
vn -0.1354 0.3640 -0.9215
vn 0.0168 0.3705 -0.9287
vn 0.1536 0.3346 -0.9298
vn -0.8606 0.1775 -0.4773
vn -0.4996 0.2963 -0.8140
vn -0.3289 0.1634 -0.9301
vn -0.1348 0.1754 -0.9752
vn -0.0486 0.2435 -0.9687
vn 0.2680 0.1611 -0.9498
vn -0.8857 0.1273 -0.4465
vn -0.5503 0.1495 -0.8215
vn -0.2828 -0.1250 -0.9510
vn -0.0599 -0.1588 -0.9855
vn 0.1489 -0.1768 -0.9729
vn 0.3623 -0.1601 -0.9182
vn -0.8903 0.1008 -0.4441
vn -0.5154 -0.0611 -0.8548
vn -0.1675 -0.3589 -0.9182
vn 0.0623 -0.4609 -0.8852
vn 0.2861 -0.5124 -0.8097
vn 0.4551 -0.4978 -0.7383
vn -0.8741 0.0530 -0.4829
vn 0.0570 -0.3678 -0.9281
vn 0.3424 -0.3992 -0.8505
vn 0.4825 -0.6543 -0.5823
vn 0.5421 -0.6650 -0.5137
vn -0.3832 -0.2253 -0.8957
vn -0.8447 0.0190 -0.5349
vn 0.5305 -0.7165 -0.4530
vn -0.1913 -0.2824 -0.9400
vn -0.9549 0.1676 -0.2450
vn -0.9705 0.1858 0.1538
vn -0.7861 0.1531 0.5988
vn -0.9678 0.1209 -0.2209
vn -0.9736 0.1287 0.1887
vn -0.7706 0.1161 0.6266
vn -0.9736 0.1264 -0.1902
vn -0.9681 0.1438 0.2052
vn -0.7683 0.1533 0.6214
vn -0.9688 0.1331 -0.2089
vn -0.9646 0.1877 0.1853
vn -0.7702 0.2050 0.6040
vn -0.9689 0.1002 -0.2263
vn -0.9810 0.1460 0.1280
vn 0.3538 0.1438 0.9242
vn -0.4349 0.0758 0.8973
vn -0.2186 -0.1501 0.9642
vn -0.3121 -0.1218 0.9422
vn -0.1606 0.0094 0.9870
vn -0.1608 -0.0679 0.9847
vn -0.4029 0.0739 0.9122
vn -0.2287 -0.2764 0.9334
vn -0.1502 -0.2006 0.9681
vn -0.0552 0.0250 0.9982
vn 0.0224 -0.0537 0.9983
vn -0.3981 0.1491 0.9052
vn -0.1711 -0.3653 0.9150
vn 0.1268 -0.1751 0.9764
vn 0.0250 0.1005 0.9946
vn 0.2732 -0.0036 0.9619
vn -0.0685 -0.3512 0.9338
vn -0.4444 0.1964 0.8741
vn 0.5390 0.0156 0.8421
vn 0.0368 0.1418 0.9892
vn 0.3779 0.0858 0.9219
vn -0.2799 0.0832 0.9564
vn -0.2876 -0.0056 0.9577
vn -0.1744 -0.0640 0.9826
vn -0.5297 0.1720 0.8305
vn -0.3124 -0.0565 0.9483
vn 0.1521 -0.4150 0.8970
vn 0.1170 -0.8472 0.5182
vn 0.6884 -0.7248 -0.0265
vn 0.5763 -0.7581 -0.3053
vn -0.4262 0.4116 -0.8056
vn -0.8156 0.2758 -0.5086
vn -0.9307 0.2862 -0.2279
vn -0.8078 0.2720 0.5230
vn -0.9330 0.3226 0.1597
vn -0.0897 0.1593 0.9831
vn 0.5914 0.0792 0.8025
vn -0.4826 0.1880 0.8554
vn -0.7293 0.1796 0.6602
vn 0.3610 -0.1657 0.9177
vn 0.7553 -0.2884 0.5886
vn 0.9626 -0.2692 -0.0293
vn 0.8946 -0.3385 -0.2918
vn 0.4977 -0.0698 0.8645
vn 0.7957 -0.1232 0.5931
vn 0.9916 -0.1204 -0.0471
vn 0.9415 -0.1128 -0.3175
vn 0.7338 -0.4494 -0.5095
vn 0.8071 -0.1662 -0.5665
vn 0.0791 -0.1414 -0.9868
vn 0.3669 -0.1882 -0.9110
vn 0.3304 0.0696 0.9413
vn -0.8339 0.0383 -0.5506
vn -0.2681 -0.1176 -0.9562
vn -0.9716 0.0936 -0.2174
vn -0.9798 0.0957 0.1758
vn -0.1026 0.0716 0.9921
vn 0.5903 0.0341 0.8065
vn -0.5023 0.1002 0.8589
vn -0.7989 0.1058 0.5921
vn 0.5409 0.0023 0.8411
vn 0.8005 -0.0607 0.5962
vn 0.7136 -0.2530 -0.6533
vn -0.0405 -0.0713 -0.9966
vn 0.2818 0.0415 0.9586
vn -0.8397 0.0222 -0.5426
vn -0.2915 -0.0498 -0.9553
vn -0.9784 0.0488 -0.2011
vn -0.9737 0.0699 0.2170
vn -0.1435 0.0575 0.9880
vn 0.5560 0.0170 0.8310
vn -0.5095 0.0732 0.8574
vn -0.7923 0.0866 0.6040
vn 0.8028 -0.5769 0.1508
vn 0.9604 -0.1969 0.1973
vn 0.9714 -0.1310 0.1981
vn -0.8933 -0.0248 -0.4488
vn -0.9868 -0.0054 -0.1616
vn -0.9689 0.0246 0.2464
vn -0.7688 0.0320 0.6387
vn -0.4842 0.0285 0.8745
vn 0.1150 0.3517 -0.9290
vn 0.3138 0.2318 -0.9207
vn 0.5367 0.0947 -0.8385
vn 0.7022 -0.1497 -0.6961
vn 0.7687 -0.3633 -0.5264
vn 0.6349 -0.5956 -0.4920
vn -0.8073 0.4870 0.3334
vn 0.3423 -0.8673 -0.3614
vn 0.3021 -0.9515 -0.0584
vn 0.3351 -0.9403 0.0597
vn -0.2413 -0.9263 0.2893
vn -0.1525 -0.7081 0.6894
vn -0.0834 -0.3952 0.9148
vn -0.0875 -0.3774 0.9219
vn -0.1262 -0.2931 0.9477
vn -0.1151 -0.1504 0.9819
vn -0.0704 -0.0530 0.9961
vn -0.0250 -0.0327 0.9992
vn 0.7575 0.1404 -0.6375
vn 0.7431 0.0336 -0.6683
vn 0.6087 -0.0109 -0.7933
vn 0.5982 -0.0368 -0.8005
vn 0.6908 -0.0728 -0.7194
vn 0.6244 -0.1242 -0.7712
vn 0.6226 0.3514 -0.6992
vn 0.7008 0.2457 -0.6697
vn -0.0008 -0.0028 1.0000
vn 0.1819 -0.0386 0.9826
vn 0.3552 -0.0052 0.9348
vn 0.4065 0.1064 0.9074
vn 0.3777 0.0424 0.9250
vn 0.2694 0.4394 -0.8570
vn 0.1397 0.4459 -0.8841
vn 0.0303 0.4424 -0.8963
vn -0.0187 0.4058 -0.9138
vn 0.2998 0.3430 -0.8902
vn 0.1275 0.3655 -0.9220
vn -0.0002 0.3702 -0.9289
vn -0.1538 0.3336 -0.9301
vn 0.0351 0.1933 -0.9805
vn 0.8590 0.1778 -0.4802
vn 0.5100 0.2936 -0.8085
vn 0.3348 0.1559 -0.9293
vn 0.1321 0.1740 -0.9758
vn 0.0479 0.2469 -0.9679
vn -0.2861 0.1568 -0.9453
vn 0.8853 0.1269 -0.4473
vn 0.5409 0.1485 -0.8279
vn 0.2823 -0.1194 -0.9519
vn 0.0599 -0.1588 -0.9855
vn -0.1489 -0.1768 -0.9729
vn -0.3622 -0.1606 -0.9182
vn 0.8902 0.1006 -0.4444
vn 0.5029 -0.0674 -0.8617
vn 0.1661 -0.3605 -0.9179
vn -0.0623 -0.4609 -0.8852
vn -0.2875 -0.5132 -0.8087
vn -0.4548 -0.5011 -0.7362
vn 0.8742 0.0528 -0.4828
vn -0.0570 -0.3678 -0.9281
vn -0.3424 -0.3992 -0.8505
vn -0.4845 -0.6510 -0.5844
vn -0.5412 -0.6697 -0.5086
vn 0.3847 -0.2278 -0.8945
vn 0.8447 0.0190 -0.5349
vn -0.5601 -0.7036 -0.4374
vn 0.1913 -0.2824 -0.9400
vn 0.9570 0.1675 -0.2369
vn 0.9675 0.1856 0.1717
vn 0.7802 0.1546 0.6061
vn 0.9684 0.1209 -0.2181
vn 0.9738 0.1303 0.1865
vn 0.7706 0.1166 0.6265
vn 0.9736 0.1263 -0.1901
vn 0.9681 0.1438 0.2052
vn 0.7683 0.1533 0.6214
vn 0.9688 0.1331 -0.2089
vn 0.9646 0.1877 0.1853
vn 0.7702 0.2050 0.6040
vn 0.9689 0.1002 -0.2263
vn 0.9810 0.1460 0.1280
vn -0.3838 0.1321 0.9139
vn 0.4438 0.0779 0.8927
vn 0.2186 -0.1501 0.9642
vn 0.3121 -0.1218 0.9422
vn 0.1693 0.0129 0.9855
vn 0.1631 -0.0671 0.9843
vn 0.4026 0.0752 0.9123
vn 0.2287 -0.2764 0.9334
vn 0.1502 -0.2006 0.9681
vn 0.0552 0.0256 0.9981
vn -0.0224 -0.0537 0.9983
vn 0.3981 0.1491 0.9052
vn 0.1744 -0.3648 0.9146
vn -0.1264 -0.1758 0.9763
vn -0.0250 0.1005 0.9946
vn -0.2736 -0.0020 0.9618
vn 0.0700 -0.3530 0.9330
vn 0.4444 0.1964 0.8741
vn -0.5397 0.0180 0.8417
vn -0.0328 0.1447 0.9889
vn -0.3629 0.0915 0.9273
vn 0.2711 0.0866 0.9586
vn 0.2875 -0.0034 0.9578
vn 0.1745 -0.0640 0.9826
vn 0.4855 0.1695 0.8576
vn 0.3115 -0.0534 0.9487
vn -0.1521 -0.4150 0.8970
vn -0.1170 -0.8472 0.5182
vn -0.6884 -0.7248 -0.0265
vn -0.5763 -0.7581 -0.3053
vn 0.4261 0.4111 -0.8059
vn 0.8134 0.2802 -0.5098
vn 0.9316 0.2886 -0.2211
vn 0.7947 0.2708 0.5433
vn 0.9313 0.3203 0.1735
vn 0.0868 0.1557 0.9840
vn -0.5947 0.0751 0.8005
vn 0.4826 0.1880 0.8554
vn 0.7293 0.1796 0.6602
vn -0.3610 -0.1657 0.9177
vn -0.7553 -0.2884 0.5886
vn -0.9626 -0.2692 -0.0293
vn -0.8946 -0.3385 -0.2918
vn -0.4977 -0.0698 0.8645
vn -0.7957 -0.1232 0.5931
vn -0.9916 -0.1204 -0.0471
vn -0.9415 -0.1128 -0.3175
vn -0.7338 -0.4494 -0.5095
vn -0.8071 -0.1662 -0.5665
vn -0.0791 -0.1414 -0.9868
vn -0.3669 -0.1882 -0.9110
vn -0.3232 0.0729 0.9435
vn 0.8339 0.0383 -0.5506
vn 0.2681 -0.1176 -0.9562
vn 0.9716 0.0936 -0.2174
vn 0.9798 0.0957 0.1758
vn 0.1396 0.0829 0.9867
vn -0.5904 0.0341 0.8064
vn 0.5081 0.1093 0.8543
vn 0.8004 0.1088 0.5895
vn -0.5364 0.0095 0.8439
vn -0.8008 -0.0612 0.5959
vn -0.7136 -0.2530 -0.6533
vn 0.0405 -0.0713 -0.9966
vn -0.2818 0.0415 0.9586
vn 0.8397 0.0224 -0.5426
vn 0.2915 -0.0498 -0.9553
vn 0.9784 0.0488 -0.2011
vn 0.9737 0.0699 0.2170
vn 0.1328 0.0535 0.9897
vn -0.5560 0.0170 0.8310
vn 0.4895 0.0630 0.8698
vn 0.7912 0.0826 0.6059
vn -0.8028 -0.5769 0.1508
vn -0.9604 -0.1969 0.1973
vn -0.9714 -0.1310 0.1981
vn 0.8936 -0.0256 -0.4481
vn 0.9857 -0.0046 -0.1686
vn 0.9689 0.0246 0.2464
vn 0.7688 0.0320 0.6387
vn 0.4845 0.0287 0.8743
vn -0.1174 0.3504 -0.9292
vn -0.2911 0.2380 -0.9266
vn -0.5072 0.0909 -0.8570
vn -0.6230 -0.1645 -0.7647
vn -0.6456 -0.4327 -0.6292
vn -0.9135 -0.3611 -0.1876
vn -0.9970 0.0066 -0.0774
vn -0.2651 -0.8800 -0.3942
vn -0.3246 -0.9440 -0.0587
vn -0.3371 -0.9405 0.0439
vn 0.3414 -0.8954 0.2859
vn 0.2305 -0.7005 0.6754
vn 0.0865 -0.3964 0.9140
vn 0.0960 -0.3778 0.9209
vn 0.1268 -0.2929 0.9477
vn 0.1158 -0.1503 0.9818
vn 0.0708 -0.0530 0.9961
vn 0.0250 -0.0335 0.9991
vn -0.0072 0.3015 -0.9534
vn 0.0440 0.0641 -0.9970
vn 0.1453 -0.2608 -0.9544
vn 0.2633 -0.6490 -0.7138
vn -0.5220 -0.6492 -0.5533
vn -0.0922 -0.8572 -0.5067
vn 0.0007 -0.1594 0.9872
vn 0.0008 -0.3084 0.9513
vn 0.0036 -0.3755 0.9268
vn 0.0057 -0.3857 0.9226
vn 0.0004 -0.0420 0.9991
vn 0.1009 -0.5757 0.8114
vn 0.0836 -0.9675 0.2388
vn -0.0400 -0.9974 -0.0597
vn 0.0344 -0.9649 -0.2604
vn -0.0407 -0.9990 0.0183
vn 0.0982 -0.2336 -0.9674
vn 0.8118 -0.0136 -0.5838
vn -0.1520 -0.0864 -0.9846
vn -0.6390 0.0038 0.7692
vn 0.3468 -0.0086 0.9379
vn -0.5298 -0.0023 0.8481
vn 0.0642 -0.0716 -0.9954
vn -0.9680 0.1121 -0.2246
vn -0.0593 0.1068 0.9925
vn 0.3392 -0.2089 -0.9172
vn 0.9737 -0.1182 0.1948
vn 0.5307 0.0097 0.8475
vn -0.3820 -0.1431 -0.9130
vn 0.5135 -0.0070 0.8580
vn -0.9756 0.1748 0.1330
vn 0.6009 0.0609 0.7970
vn 0.8074 -0.0747 0.5852
vn 0.8007 0.0017 0.5990
vn -0.9776 -0.1304 0.1653
vn -0.1764 0.0086 0.9843
vn 0.6614 -0.0198 -0.7497
vn -0.5029 0.1299 0.8545
vn 0.9889 -0.1385 -0.0532
vn 0.9016 -0.0593 -0.4284
vn -0.6280 -0.0291 0.7777
vn -0.6461 -0.1269 -0.7526
vn -0.7381 0.1516 0.6575
vn 0.9300 -0.1811 -0.3200
vn -0.7993 -0.0660 0.5973
vn -0.9220 -0.0831 0.3781
vn -0.9864 -0.1361 -0.0926
vn 0.3602 -0.0514 -0.9314
vn -0.4237 -0.2002 -0.8834
vn -0.8799 0.1577 0.4483
vn 0.9887 -0.0374 -0.1451
vn -0.9418 -0.2594 -0.2138
vn 0.3173 0.1012 0.9429
vn 0.7935 -0.1687 -0.5848
vn -0.8094 -0.2528 -0.5301
vn 0.9704 0.0016 0.2415
vn -0.8559 0.0370 -0.5157
vn -0.1937 -0.2289 -0.9540
vn -0.6935 -0.2994 -0.6554
vn 0.2548 0.0197 0.9668
vn 0.3820 -0.1431 -0.9130
vn -0.5135 -0.0070 0.8580
vn 0.8559 0.0370 -0.5157
vn 0.1937 -0.2289 -0.9540
vn -0.8007 0.0017 0.5990
vn 0.9776 -0.1304 0.1653
vn -0.0982 -0.2336 -0.9674
vn 0.1764 0.0086 0.9843
vn -0.9018 -0.0559 -0.4286
vn 0.6280 -0.0291 0.7777
vn 0.9680 0.1121 -0.2246
vn 0.0456 0.1039 0.9935
vn -0.3392 -0.2089 -0.9172
vn -0.5307 0.0090 0.8475
vn -0.6625 -0.0206 -0.7488
vn -0.8120 -0.0160 -0.5834
vn 0.7993 -0.0660 0.5973
vn 0.9220 -0.0831 0.3781
vn 0.9864 -0.1361 -0.0926
vn 0.9756 0.1748 0.1329
vn -0.6009 0.0609 0.7970
vn -0.8076 -0.0744 0.5851
vn -0.3602 -0.0514 -0.9314
vn -0.9837 -0.0417 -0.1751
vn 0.9418 -0.2594 -0.2138
vn 0.6461 -0.1269 -0.7526
vn 0.5029 0.1299 0.8545
vn 0.8094 -0.2528 -0.5301
vn -0.9707 -0.0022 0.2402
vn 0.4237 -0.2002 -0.8834
vn 0.7381 0.1516 0.6575
vn 0.6935 -0.2994 -0.6554
vn 0.8799 0.1577 0.4483
vn -0.2547 0.0197 0.9668
vn 0.1520 -0.0864 -0.9846
vn 0.6390 0.0038 0.7692
vn -0.3467 -0.0086 0.9379
vn -0.3031 0.1045 0.9472
vn -0.7935 -0.1687 -0.5848
vn -0.0642 -0.0716 -0.9954
vn 0.5298 -0.0023 0.8481
vn -0.9737 -0.1182 0.1948
vn -0.9889 -0.1385 -0.0532
vn -0.9300 -0.1811 -0.3200
vn -0.1748 -0.0323 0.9841
vn -0.1279 0.4700 -0.8733
vn -0.3879 0.4438 -0.8078
vn -0.5900 0.3927 -0.7055
vn 0.3638 0.1537 0.9187
vn 0.0786 0.4561 -0.8864
vn 0.3870 0.4410 -0.8098
vn 0.5777 0.3957 -0.7139
vn 0.4966 0.2375 0.8348
vn -0.3577 0.1479 0.9221
vn -0.0627 0.4604 -0.8855
vn -0.5851 0.2567 0.7693
vn 0.3967 0.0227 0.9177
vn 0.0020 0.4162 -0.9093
vn 0.7897 0.3460 -0.5067
vn -0.3955 0.0376 0.9177
vn 0.0048 0.4049 -0.9143
vn -0.0068 0.4203 -0.9074
vn -0.7939 0.3409 -0.5035
vn 0.0013 0.0102 0.9999
vn 0.4052 0.0875 0.9100
vn -0.3447 0.0792 0.9354
vn 0.9104 0.3609 -0.2024
vn -0.9082 0.3649 -0.2049
vn -0.0554 0.4192 -0.9062
vn 0.8952 0.4076 0.1801
vn -0.8947 0.3990 0.2007
vn 0.7814 0.3503 0.5165
vn 0.0113 -0.0337 0.9994
vn 0.0572 0.4191 -0.9061
vn -0.7978 0.3395 0.4983
vn 0.3613 -0.0122 0.9324
vn 0.2476 0.4648 -0.8501
vn -0.3654 0.0103 0.9308
vn -0.2482 0.4658 -0.8494
vn -0.0103 -0.0333 0.9994
vn 0.1833 -0.0371 0.9824
vn 0.1282 0.4687 -0.8740
vn 0.2927 -0.0253 0.9559
vn 0.3213 -0.1429 0.9361
vn -0.6251 -0.2520 -0.7387
vn -0.4046 -0.0439 0.9135
vn -0.4629 -0.5300 -0.7105
vn -0.5808 -0.2500 -0.7747
vn -0.0593 0.0842 -0.9947
vn -0.0364 0.2456 -0.9687
vn -0.6258 0.0475 0.7785
vn -0.0867 0.3666 -0.9263
vn 0.1477 -0.2970 0.9434
vn -0.5510 0.0262 0.8341
vn -0.5230 -0.0227 0.8520
vn -0.1583 -0.5122 -0.8441
vn -0.0177 0.4296 -0.9029
vn 0.2833 -0.2537 0.9249
vn 0.2695 -0.0630 0.9609
vn -0.0551 -0.1817 -0.9818
vn -0.3067 -0.1444 0.9408
vn -0.5701 0.0194 0.8214
vn -0.6223 -0.3111 -0.7184
vn -0.5596 0.0250 0.8284
vn -0.5863 -0.1792 -0.7900
vn 0.3006 -0.0261 0.9534
vn 0.0523 0.4413 -0.8958
vn -0.3213 -0.1429 0.9361
vn 0.6251 -0.2520 -0.7387
vn 0.4046 -0.0439 0.9135
vn 0.4629 -0.5300 -0.7105
vn 0.5808 -0.2500 -0.7747
vn 0.0545 0.0820 -0.9951
vn 0.0297 0.2443 -0.9692
vn 0.6484 0.0108 0.7612
vn -0.2905 -0.0166 0.9567
vn -0.1477 -0.2970 0.9434
vn 0.5662 0.0286 0.8238
vn 0.5230 -0.0227 0.8520
vn 0.1034 0.3683 -0.9240
vn 0.1583 -0.5122 -0.8441
vn 0.0177 0.4319 -0.9017
vn -0.2833 -0.2537 0.9249
vn -0.2687 -0.0651 0.9610
vn 0.0551 -0.1817 -0.9818
vn 0.3067 -0.1444 0.9408
vn 0.5598 0.0258 0.8283
vn 0.5863 -0.1792 -0.7900
vn 0.5701 0.0194 0.8214
vn 0.6223 -0.3111 -0.7184
vn -0.0398 0.4460 -0.8941
vn -0.2992 0.0066 0.9542
vn -0.8297 -0.4756 -0.2923
vn -0.2176 -0.8294 -0.5145
vn 0.8521 -0.4227 -0.3086
vn -0.1471 -0.8440 -0.5158
vn -0.1842 -0.8170 -0.5464
vn -0.2191 -0.8136 -0.5386
vt 0.947885 0.130466
vt 0.916552 0.217773
vt 0.922423 0.109158
vt 0.910170 0.350513
vt 0.886272 0.320190
vt 0.910678 0.329178
vt 0.140405 0.991377
vt 0.130797 0.987253
vt 0.140151 0.985929
vt 0.196005 0.967604
vt 0.209910 0.990138
vt 0.195995 0.989859
vt 0.166463 0.974227
vt 0.166973 0.989756
vt 0.189722 0.969440
vt 0.190235 0.989853
vt 0.800114 0.326339
vt 0.816195 0.429717
vt 0.803731 0.432854
vt 0.845675 0.316903
vt 0.843135 0.432594
vt 0.937756 0.342549
vt 0.936729 0.377097
vt 0.751566 0.575052
vt 0.753351 0.467287
vt 0.755956 0.576771
vt 0.775642 0.578645
vt 0.791462 0.440861
vt 0.797566 0.574131
vt 0.818335 0.571614
vt 0.803149 0.573252
vt 0.224889 0.596685
vt 0.250370 0.706942
vt 0.226195 0.714408
vt 0.227765 0.494613
vt 0.250439 0.590608
vt 0.842848 0.571980
vt 0.871895 0.575002
vt 0.874578 0.439109
vt 0.749581 0.923437
vt 0.764580 0.825955
vt 0.764163 0.929481
vt 0.803852 0.927569
vt 0.787324 0.834284
vt 0.803785 0.834504
vt 0.806616 0.834460
vt 0.823949 0.925650
vt 0.806771 0.927360
vt 0.825741 0.830624
vt 0.841431 0.921987
vt 0.861326 0.917925
vt 0.844101 0.825480
vt 0.866758 0.820240
vt 0.891145 0.817333
vt 0.883905 0.919677
vt 0.915395 0.819781
vt 0.908515 0.925660
vt 0.196198 0.730619
vt 0.183127 0.618051
vt 0.196430 0.612191
vt 0.185523 0.738236
vt 0.157516 0.624417
vt 0.159977 0.751628
vt 0.133048 0.643035
vt 0.133889 0.759982
vt 0.105870 0.662636
vt 0.076367 0.685570
vt 0.110022 0.776162
vt 0.082425 0.806829
vt 0.184408 0.494638
vt 0.197275 0.495055
vt 0.155516 0.513022
vt 0.129606 0.540098
vt 0.100301 0.559879
vt 0.071500 0.577055
vt 0.902695 0.578222
vt 0.907453 0.447001
vt 0.927950 0.579641
vt 0.750626 0.992362
vt 0.766480 0.992158
vt 0.803771 0.991885
vt 0.786376 0.929572
vt 0.820687 0.991911
vt 0.804408 0.991864
vt 0.837138 0.991303
vt 0.855304 0.991199
vt 0.878993 0.990558
vt 0.901718 0.991207
vt 0.897288 0.704077
vt 0.920700 0.702841
vt 0.878705 0.318778
vt 0.153104 0.415799
vt 0.111199 0.365723
vt 0.146088 0.333787
vt 0.183180 0.377067
vt 0.060203 0.389187
vt 0.092008 0.469442
vt 0.065600 0.483082
vt 0.123151 0.447928
vt 0.086797 0.382210
vt 0.223709 0.293810
vt 0.200566 0.263723
vt 0.220191 0.245653
vt 0.232408 0.279449
vt 0.229963 0.229922
vt 0.801723 0.287913
vt 0.812326 0.309068
vt 0.853805 0.185978
vt 0.894636 0.095377
vt 0.886799 0.207330
vt 0.145117 0.247258
vt 0.106000 0.170641
vt 0.140594 0.144404
vt 0.198163 0.176109
vt 0.194116 0.115565
vt 0.199785 0.120495
vt 0.110765 0.274218
vt 0.077688 0.181276
vt 0.214944 0.135293
vt 0.220314 0.138202
vt 0.215539 0.147875
vt 0.170737 0.212823
vt 0.056188 0.289088
vt 0.082366 0.286446
vt 0.915680 0.991178
vt 0.925867 0.938262
vt 0.916690 0.990984
vt 0.936333 0.826426
vt 0.923424 0.932553
vt 0.932218 0.825801
vt 0.938098 0.705431
vt 0.941364 0.701905
vt 0.944704 0.582458
vt 0.945737 0.588542
vt 0.952223 0.480993
vt 0.955191 0.395571
vt 0.958640 0.381784
vt 0.957571 0.397875
vt 0.195775 0.271040
vt 0.206225 0.325971
vt 0.193757 0.350173
vt 0.089662 0.921503
vt 0.117065 0.989284
vt 0.098303 0.989308
vt 0.773835 0.232304
vt 0.766202 0.278086
vt 0.768853 0.224970
vt 0.791037 0.126085
vt 0.796371 0.122707
vt 0.795439 0.131274
vt 0.771019 0.290127
vt 0.784814 0.258272
vt 0.779216 0.313593
vt 0.233798 0.278086
vt 0.231147 0.224970
vt 0.100268 0.014763
vt 0.076550 0.024572
vt 0.076055 -0.006307
vt 0.962586 0.282359
vt 0.956781 0.362053
vt 0.961986 0.260108
vt 0.034861 0.173930
vt 0.038014 0.260108
vt 0.033921 0.151569
vt 0.053314 0.019680
vt 0.052685 -0.029643
vt 0.137407 0.878053
vt 0.163617 0.865567
vt 0.109497 0.899907
vt 0.869213 0.704007
vt 0.844560 0.707809
vt 0.768561 0.388606
vt 0.750988 0.412986
vt 0.763060 0.363809
vt 0.747870 0.387441
vt 0.747622 0.383610
vt 0.747969 0.379225
vt 0.747835 0.381781
vt 0.754560 0.331262
vt 0.759590 0.342205
vt 0.753513 0.349658
vt 0.250651 0.334140
vt 0.243197 0.332567
vt 0.245440 0.331262
vt 0.252094 0.333704
vt 0.239960 0.339057
vt 0.239102 0.363937
vt 0.237232 0.343661
vt 0.230412 0.421863
vt 0.219871 0.375412
vt 0.220013 0.430440
vt 0.822664 0.711576
vt 0.803348 0.698507
vt 0.187312 0.855431
vt 0.196141 0.850104
vt 0.228555 0.833608
vt 0.250362 0.951527
vt 0.228961 0.954608
vt 0.205309 0.725410
vt 0.803291 0.715262
vt 0.783982 0.715743
vt 0.750930 0.702052
vt 0.770773 0.456750
vt 0.784104 0.355330
vt 0.757478 0.327554
vt 0.236770 0.320414
vt 0.192100 0.390961
vt 0.202767 0.606686
vt 0.209581 0.502384
vt 0.785466 0.992635
vt 0.751361 0.457991
vt 0.747983 0.412900
vt 0.252031 0.379225
vt 0.252130 0.387441
vt 0.252017 0.412900
vt 0.747737 0.383688
vt 0.751543 0.348608
vt 0.749349 0.334140
vt 0.242522 0.327554
vt 0.253776 0.332726
vt 0.253230 0.364039
vt 0.251709 0.411984
vt 0.251709 0.485705
vt 0.208119 0.843808
vt 0.209783 0.964014
vt 0.250301 0.828077
vt 0.751303 0.823416
vt 0.760651 0.707183
vt 0.083310 0.990984
vt 0.063667 0.826426
vt 0.074133 0.938262
vt 0.058636 0.701905
vt 0.054263 0.588542
vt 0.047777 0.480993
vt 0.051064 0.388115
vt 0.042429 0.397875
vt 0.041360 0.381784
vt 0.053762 0.179995
vt 0.943257 0.237147
vt 0.966079 0.151569
vt 0.932945 0.457232
vt 0.951581 0.467171
vt 0.173775 0.259627
vt 0.143356 0.291079
vt 0.113405 0.324681
vt 0.085005 0.351744
vt 0.059755 0.380245
vt 0.879089 0.313084
vt 0.848102 0.279930
vt 0.813871 0.248233
vt 0.800291 0.230415
vt 0.820566 0.159068
vt 0.774817 0.205680
vt 0.769810 0.201062
vt 0.230190 0.201062
vt 0.228505 0.202419
vt 0.218356 0.212994
vt 0.199309 0.231255
vt 0.196276 0.234838
vt 0.552115 0.130466
vt 0.583448 0.217773
vt 0.556743 0.237147
vt 0.613728 0.320190
vt 0.589830 0.350513
vt 0.589322 0.329178
vt 0.368139 0.990713
vt 0.358580 0.990977
vt 0.358893 0.985553
vt 0.290002 0.990122
vt 0.303896 0.968290
vt 0.303992 0.990523
vt 0.333780 0.974309
vt 0.332959 0.990445
vt 0.310600 0.969555
vt 0.683805 0.429717
vt 0.699886 0.326339
vt 0.696269 0.432854
vt 0.654325 0.316903
vt 0.687674 0.309068
vt 0.562244 0.342549
vt 0.746649 0.467287
vt 0.744044 0.576771
vt 0.708538 0.440861
vt 0.724358 0.578645
vt 0.702434 0.574131
vt 0.681665 0.571614
vt 0.696851 0.573252
vt 0.275111 0.596685
vt 0.273916 0.493244
vt 0.656865 0.432594
vt 0.628772 0.571769
vt 0.657152 0.571980
vt 0.735420 0.825955
vt 0.735837 0.929481
vt 0.696148 0.927569
vt 0.712676 0.834284
vt 0.713624 0.929572
vt 0.676051 0.925650
vt 0.692203 0.834966
vt 0.693229 0.927360
vt 0.658569 0.921986
vt 0.675625 0.830451
vt 0.638674 0.917925
vt 0.655915 0.825486
vt 0.608855 0.817333
vt 0.616095 0.919677
vt 0.584675 0.820220
vt 0.316873 0.618051
vt 0.303802 0.730619
vt 0.303570 0.612191
vt 0.342484 0.624417
vt 0.314477 0.738236
vt 0.366952 0.643035
vt 0.340023 0.751628
vt 0.394130 0.662636
vt 0.366792 0.760178
vt 0.423633 0.685570
vt 0.390679 0.776396
vt 0.315592 0.494638
vt 0.302725 0.495055
vt 0.344484 0.513021
vt 0.370394 0.540098
vt 0.399699 0.559879
vt 0.428500 0.577055
vt 0.625422 0.439109
vt 0.597305 0.578222
vt 0.592547 0.447001
vt 0.572047 0.578922
vt 0.733824 0.992077
vt 0.696429 0.992062
vt 0.714353 0.992768
vt 0.679308 0.991909
vt 0.695795 0.992020
vt 0.663066 0.991410
vt 0.644696 0.991200
vt 0.622864 0.991924
vt 0.591485 0.925660
vt 0.602712 0.704077
vt 0.579300 0.702841
vt 0.621295 0.318778
vt 0.388801 0.365723
vt 0.349405 0.417176
vt 0.350644 0.333521
vt 0.316820 0.377067
vt 0.407992 0.469442
vt 0.439797 0.389187
vt 0.434400 0.483082
vt 0.413203 0.382210
vt 0.376849 0.447928
vt 0.299434 0.263723
vt 0.276291 0.293810
vt 0.279809 0.245653
vt 0.267592 0.279449
vt 0.270037 0.229922
vt 0.698277 0.287913
vt 0.646195 0.185977
vt 0.605364 0.095377
vt 0.638307 0.070941
vt 0.577577 0.109158
vt 0.394000 0.170641
vt 0.354883 0.247258
vt 0.359406 0.144404
vt 0.305884 0.115565
vt 0.301837 0.176109
vt 0.300215 0.120495
vt 0.419717 0.180697
vt 0.393095 0.274066
vt 0.279686 0.138202
vt 0.285056 0.135293
vt 0.284461 0.147875
vt 0.329263 0.212823
vt 0.417634 0.286446
vt 0.446238 0.179995
vt 0.443812 0.289088
vt 0.574590 0.938210
vt 0.584332 0.991300
vt 0.583310 0.990984
vt 0.576576 0.932553
vt 0.564209 0.826782
vt 0.567462 0.824716
vt 0.561902 0.705431
vt 0.558636 0.701905
vt 0.555296 0.582458
vt 0.547777 0.480993
vt 0.554263 0.588542
vt 0.541360 0.381784
vt 0.544809 0.395571
vt 0.542429 0.397875
vt 0.293775 0.325971
vt 0.304225 0.271040
vt 0.306243 0.350173
vt 0.379817 0.986526
vt 0.410338 0.921503
vt 0.401901 0.987101
vt 0.726165 0.232304
vt 0.733798 0.278086
vt 0.728981 0.290127
vt 0.708963 0.126085
vt 0.704561 0.131273
vt 0.703629 0.122707
vt 0.715186 0.258272
vt 0.266202 0.278086
vt 0.268853 0.224970
vt 0.399732 0.014763
vt 0.423945 -0.006307
vt 0.423450 0.024572
vt 0.537414 0.282359
vt 0.543219 0.362053
vt 0.461986 0.260108
vt 0.465139 0.173930
vt 0.466079 0.151569
vt 0.446686 0.019680
vt 0.447315 -0.029643
vt 0.362593 0.878054
vt 0.336383 0.865567
vt 0.386725 0.896976
vt 0.417408 0.806771
vt 0.631358 0.818569
vt 0.630787 0.704007
vt 0.655440 0.707809
vt 0.731665 0.386525
vt 0.749012 0.412986
vt 0.736940 0.363809
vt 0.746487 0.349658
vt 0.745440 0.331262
vt 0.740410 0.342205
vt 0.742522 0.327554
vt 0.254560 0.331262
vt 0.743197 0.332567
vt 0.746224 0.332726
vt 0.747906 0.333704
vt 0.260898 0.363937
vt 0.262768 0.343661
vt 0.280129 0.375412
vt 0.269588 0.421863
vt 0.279987 0.430440
vt 0.290419 0.502384
vt 0.677336 0.711576
vt 0.696652 0.698507
vt 0.695925 0.715159
vt 0.312688 0.855431
vt 0.303859 0.850104
vt 0.271445 0.833608
vt 0.294691 0.725410
vt 0.273805 0.714408
vt 0.696709 0.715262
vt 0.696215 0.834504
vt 0.718344 0.714825
vt 0.739349 0.707183
vt 0.715896 0.355330
vt 0.720784 0.313593
vt 0.263230 0.320414
vt 0.257478 0.327554
vt 0.307900 0.390961
vt 0.729227 0.456750
vt 0.297233 0.606686
vt 0.248639 0.457991
vt 0.250988 0.412986
vt 0.752378 0.383610
vt 0.256803 0.332567
vt 0.260040 0.339057
vt 0.291881 0.843808
vt 0.271124 0.954613
vt 0.425410 0.938210
vt 0.416690 0.990984
vt 0.435791 0.826782
vt 0.441364 0.701905
vt 0.445737 0.588542
vt 0.452223 0.480993
vt 0.457571 0.397875
vt 0.448936 0.388115
vt 0.458640 0.381784
vt 0.462586 0.282359
vt 0.533921 0.151569
vt 0.538014 0.260108
vt 0.563271 0.377097
vt 0.567055 0.457232
vt 0.598344 0.990589
vt 0.326225 0.259627
vt 0.356644 0.291079
vt 0.386595 0.324681
vt 0.414995 0.351744
vt 0.440245 0.380245
vt 0.620911 0.313084
vt 0.651898 0.279930
vt 0.613201 0.207330
vt 0.686129 0.248233
vt 0.679434 0.159068
vt 0.699709 0.230415
vt 0.700247 0.136360
vt 0.725183 0.205680
vt 0.731147 0.224970
vt 0.269810 0.201062
vt 0.281644 0.212994
vt 0.271495 0.202419
vt 0.300691 0.231255
vt 0.303724 0.234838
vt 0.854412 0.064136
vt 0.862293 0.057361
vt 0.861693 0.070941
vt 0.898354 0.020123
vt 0.927603 -0.011389
vt 0.968502 -0.011892
vt 0.033670 0.010024
vt 0.135708 0.051262
vt 0.100292 0.015511
vt 0.335510 0.084793
vt 0.364292 0.051262
vt 0.334410 0.108086
vt 0.324132 0.094357
vt 0.637707 0.057361
vt 0.645588 0.064136
vt 0.601646 0.020123
vt 0.548254 -0.030574
vt 0.550681 -0.032671
vt 0.531498 -0.011892
vt 0.466330 0.010024
vt 0.468502 -0.011892
vt 0.712049 0.220038
vt 0.466196 -0.050220
vt 0.787951 0.220038
vt 0.548269 -0.035539
vt 0.778703 0.139888
vt 0.772493 0.146322
vt 0.175892 0.297656
vt 0.675815 0.096302
vt 0.699468 0.117475
vt 0.198110 0.178539
vt 0.197984 0.176351
vt 0.227507 0.146322
vt 0.225647 0.146585
vt 0.399708 0.015511
vt 0.302016 0.176351
vt 0.721297 0.139888
vt 0.730190 0.201062
vt 0.272493 0.146322
vt 0.165590 0.108086
vt 0.164490 0.084793
vt 0.175868 0.094357
vt 0.031498 -0.011892
vt 0.033804 -0.050221
vt 0.324108 0.297656
vt 0.949663 -0.033238
vt 0.951746 -0.030574
vt 0.302015 0.177725
vt 0.548419 0.467171
vt 0.951731 -0.035539
vt 0.967651 -0.053287
vt 0.799753 0.136360
vt 0.824185 0.096302
vt 0.290126 0.963997
vt 0.271415 0.990009
vt 0.249633 0.989410
vt 0.228668 0.990006
vt 0.309752 0.990550
vt 0.800532 0.117475
vt 0.804075 0.715159
vt 0.274353 0.146585
vt 0.032349 -0.053287
vt 0.727507 0.146322
vt 0.572397 -0.011389
vt 0.531873 -0.052662
vt 0.037414 0.282359
vt 0.468127 -0.052662
vt 0.534861 0.173930
vt 0.252378 0.383610
vt 0.760040 0.339057
vt 0.756803 0.332567
vt 0.965139 0.173930
vt 0.247622 0.383610
s 1
f 127/1/127 4/2/4 3/3/3
f 364/4/364 371/5/371 6/6/6
f 448/7/448 436/8/436 11/9/11
f 498/10/498 427/11/427 514/12/514
f 448/7/448 12/13/12 442/14/442
f 442/14/442 10/15/10 460/16/460
f 493/17/493 36/18/36 503/19/503
f 36/18/36 40/20/40 35/21/35
f 364/4/364 45/22/45 379/23/379
f 325/24/325 147/25/147 146/26/146
f 32/27/32 37/28/37 31/29/31
f 503/19/503 30/30/30 507/31/507
f 157/32/157 329/33/329 158/34/158
f 156/35/156 330/36/330 157/32/157
f 30/30/30 35/21/35 29/37/29
f 34/38/34 35/21/35 44/39/44
f 323/40/323 144/41/144 143/42/143
f 504/43/504 20/44/20 502/45/502
f 19/46/19 14/47/14 15/48/15
f 18/49/18 13/50/13 14/47/14
f 92/51/92 17/52/17 22/53/22
f 8/54/8 92/51/92 22/53/22
f 7/55/7 21/56/21 93/57/93
f 490/58/490 70/59/70 505/60/505
f 65/61/65 72/62/72 70/59/70
f 67/63/67 71/64/71 72/62/72
f 66/65/66 68/66/68 71/64/71
f 53/67/53 63/68/63 50/69/50
f 505/60/505 75/70/75 499/71/499
f 70/59/70 77/72/77 75/70/75
f 72/62/72 76/73/76 77/72/77
f 71/64/71 73/74/73 76/73/76
f 68/66/68 56/75/56 73/74/73
f 2/76/2 44/39/44 5/77/5
f 5/77/5 33/78/33 2/76/2
f 443/79/443 143/42/143 456/80/456
f 513/81/513 16/82/16 504/43/504
f 15/48/15 428/83/428 437/84/437
f 14/47/14 461/85/461 428/83/428
f 429/86/429 13/50/13 92/51/92
f 430/87/430 93/57/93 445/88/445
f 1/89/1 21/56/21 8/54/8
f 2/76/2 27/90/27 1/89/1
f 44/39/44 40/20/40 47/91/47
f 82/92/82 97/93/97 62/94/62
f 62/94/62 80/95/80 82/92/82
f 100/96/100 79/97/79 59/98/59
f 81/99/81 99/100/99 97/93/97
f 102/101/102 105/102/105 106/103/106
f 136/104/136 106/103/106 137/105/137
f 493/17/493 494/106/494 41/107/41
f 111/108/111 128/109/128 115/110/115
f 4/2/4 128/109/128 3/3/3
f 113/111/113 131/112/131 126/113/126
f 500/114/500 392/115/392 511/116/511
f 118/117/118 133/118/133 131/112/131
f 399/119/399 400/120/400 123/121/123
f 126/113/126 119/122/119 113/111/113
f 121/123/121 133/118/133 120/124/120
f 450/125/450 96/126/96 453/127/453
f 49/128/49 94/129/94 48/130/48
f 49/128/49 51/131/51 52/132/52
f 52/132/52 54/133/54 55/134/55
f 54/133/54 58/135/58 55/134/55
f 346/136/346 61/137/61 353/138/353
f 501/139/501 101/140/101 492/141/492
f 95/142/95 438/143/438 457/144/457
f 108/145/108 103/146/103 107/147/107
f 410/148/410 414/149/414 124/150/124
f 104/151/104 110/152/110 109/153/109
f 103/154/103 137/105/137 107/155/107
f 419/156/419 142/157/142 384/158/384
f 117/159/117 60/160/60 116/161/116
f 130/162/130 116/163/116 129/164/129
f 384/158/384 141/165/141 387/166/387
f 12/13/12 83/167/83 84/168/84
f 86/169/86 50/69/50 63/68/63
f 83/167/83 63/68/63 66/65/66
f 1/89/1 22/53/22 28/170/28
f 17/52/17 28/170/28 22/53/22
f 1/89/1 34/38/34 2/76/2
f 23/171/23 34/38/34 28/170/28
f 59/98/59 73/74/73 56/75/56
f 76/73/76 79/97/79 81/99/81
f 43/172/43 147/25/147 148/173/148
f 46/174/46 148/173/148 517/175/517
f 149/176/149 328/177/328 518/178/518
f 151/179/151 91/180/91 150/181/150
f 336/182/336 152/183/152 151/184/151
f 338/185/338 153/186/153 152/183/152
f 154/187/154 89/188/89 153/186/153
f 155/189/155 88/190/88 154/187/154
f 156/35/156 78/191/78 155/189/155
f 24/192/24 29/37/29 23/171/23
f 495/193/495 31/29/31 507/31/507
f 18/49/18 23/171/23 17/52/17
f 19/46/19 24/192/24 18/49/18
f 84/168/84 66/65/66 67/63/67
f 87/194/87 67/63/67 65/61/65
f 10/15/10 84/168/84 87/194/87
f 498/10/498 87/194/87 506/195/506
f 159/196/159 169/197/169 160/198/160
f 506/195/506 65/61/65 490/58/490
f 159/196/159 64/199/64 158/34/158
f 20/44/20 496/200/496 502/45/502
f 144/41/144 26/201/26 20/44/20
f 32/27/32 31/29/31 495/193/495
f 146/26/146 324/202/324 325/24/325
f 77/72/77 81/99/81 82/92/82
f 75/70/75 82/92/82 80/95/80
f 43/172/43 37/28/37 38/203/38
f 46/174/46 42/204/42 43/172/43
f 91/180/91 109/153/109 46/174/46
f 90/205/90 104/151/104 91/180/91
f 103/154/103 135/206/135 136/104/136
f 135/206/135 102/101/102 136/104/136
f 102/101/102 88/190/88 101/140/101
f 508/207/508 80/95/80 492/141/492
f 508/207/508 75/70/75 80/95/80
f 146/26/146 38/203/38 32/27/32
f 69/208/69 158/34/158 64/199/64
f 74/209/74 157/32/157 69/208/69
f 143/42/143 20/44/20 16/82/16
f 456/80/456 16/82/16 444/210/444
f 148/173/148 326/211/326 327/212/327
f 328/213/328 517/214/517 327/215/327
f 519/216/519 149/176/149 518/178/518
f 151/179/151 337/217/337 336/218/336
f 90/219/90 152/183/152 135/206/135
f 135/206/135 153/186/153 89/188/89
f 154/187/154 335/220/335 334/221/334
f 332/222/332 154/187/154 334/221/334
f 331/223/331 155/189/155 332/222/332
f 85/224/85 160/198/160 9/225/9
f 333/226/333 158/34/158 329/33/329
f 182/227/182 145/228/145 144/41/144
f 32/27/32 145/228/145 146/26/146
f 453/229/453 95/142/95 457/144/457
f 49/230/49 95/142/95 96/231/96
f 50/69/50 52/232/52 53/67/53
f 53/67/53 55/233/55 56/75/56
f 56/75/56 58/234/58 59/98/59
f 372/235/372 353/236/353 61/237/61
f 121/123/121 130/162/130 134/238/134
f 114/239/114 129/240/129 116/161/116
f 379/23/379 60/160/60 346/136/346
f 54/133/54 39/241/39 57/242/57
f 51/131/51 33/78/33 54/133/54
f 48/130/48 27/90/27 51/131/51
f 48/130/48 93/57/93 21/56/21
f 445/88/445 94/129/94 450/125/450
f 113/111/113 354/243/354 375/244/375
f 62/94/62 347/245/347 375/244/375
f 97/93/97 360/246/360 347/245/347
f 121/123/121 360/246/360 365/247/365
f 372/235/372 365/247/365 100/96/100
f 114/239/114 60/160/60 45/22/45
f 4/2/4 45/22/45 6/6/6
f 380/248/380 371/5/371 47/91/47
f 339/249/339 115/110/115 380/248/380
f 348/250/348 111/108/111 339/249/339
f 510/251/510 112/252/112 348/250/348
f 366/253/366 107/147/107 361/254/361
f 361/255/361 137/105/137 349/256/349
f 137/105/137 355/257/355 349/256/349
f 106/103/106 350/258/350 355/257/355
f 501/139/501 354/243/354 509/259/509
f 289/260/289 164/261/164 276/262/276
f 412/263/412 408/264/408 166/265/166
f 431/266/431 447/267/447 172/268/172
f 463/269/463 465/270/465 488/271/488
f 447/267/447 173/272/173 172/268/172
f 439/273/439 171/274/171 173/272/173
f 198/275/198 469/276/469 478/277/478
f 198/275/198 202/278/202 203/279/203
f 408/264/408 207/280/207 166/265/166
f 309/281/309 325/24/325 308/282/308
f 199/283/199 194/284/194 193/285/193
f 192/286/192 478/277/478 482/287/482
f 319/288/319 329/33/329 330/36/330
f 318/289/318 330/36/330 331/223/331
f 192/286/192 197/290/197 198/275/198
f 196/291/196 197/290/197 191/292/191
f 306/293/306 323/40/323 305/294/305
f 479/295/479 181/296/181 177/297/177
f 175/298/175 180/299/180 176/300/176
f 174/301/174 179/302/179 175/298/175
f 254/303/254 178/304/178 174/301/174
f 168/305/168 254/303/254 167/306/167
f 167/306/167 183/307/183 168/305/168
f 232/308/232 466/309/466 480/310/480
f 234/311/234 227/312/227 232/308/232
f 233/313/233 229/314/229 234/311/234
f 230/315/230 228/316/228 233/313/233
f 215/317/215 225/318/225 230/315/230
f 237/319/237 480/310/480 475/320/475
f 239/321/239 232/308/232 237/319/237
f 238/322/238 234/311/234 239/321/239
f 235/323/235 233/313/233 238/322/238
f 230/315/230 218/324/218 215/317/215
f 206/325/206 162/326/162 165/327/165
f 195/328/195 165/327/165 162/326/162
f 305/294/305 443/79/443 451/329/451
f 489/330/489 177/297/177 440/331/440
f 464/332/464 176/300/176 432/333/432
f 459/334/459 175/298/175 464/332/464
f 433/335/433 174/301/174 459/334/459
f 434/336/434 255/337/255 167/306/167
f 183/307/183 161/338/161 168/305/168
f 189/339/189 162/326/162 161/338/161
f 202/278/202 206/325/206 209/340/209
f 259/341/259 244/342/244 224/343/224
f 242/344/242 224/343/224 244/342/244
f 241/345/241 262/346/262 221/347/221
f 261/348/261 243/349/243 259/341/259
f 267/350/267 264/351/264 268/352/268
f 268/352/268 298/353/298 299/354/299
f 470/355/470 469/276/469 203/279/203
f 273/356/273 290/357/290 287/358/287
f 290/357/290 164/261/164 163/359/163
f 293/360/293 275/361/275 288/362/288
f 363/363/363 476/364/476 484/365/484
f 295/366/295 280/367/280 293/360/293
f 368/368/368 367/369/367 285/370/285
f 281/371/281 288/362/288 275/361/275
f 282/372/282 296/373/296 283/374/283
f 258/375/258 449/376/449 452/377/452
f 256/378/256 211/379/211 210/380/210
f 211/379/211 213/381/213 210/380/210
f 214/382/214 216/383/216 213/381/213
f 220/384/220 216/383/216 217/385/217
f 223/386/223 393/387/393 402/388/402
f 263/389/263 477/390/477 468/391/468
f 435/392/435 257/393/257 454/394/454
f 270/395/270 265/396/265 266/397/266
f 377/398/377 286/399/286 381/400/381
f 266/397/266 272/401/272 270/395/270
f 299/354/299 265/402/265 269/403/269
f 343/404/343 352/405/352 304/406/304
f 279/407/279 222/408/222 223/386/223
f 278/409/278 292/410/292 291/411/291
f 303/412/303 352/405/352 356/413/356
f 245/414/245 173/272/173 246/415/246
f 248/416/248 212/417/212 257/393/257
f 225/318/225 245/414/245 228/316/228
f 161/338/161 184/418/184 168/305/168
f 190/419/190 178/304/178 184/418/184
f 162/326/162 190/419/190 161/338/161
f 190/419/190 191/292/191 185/420/185
f 235/323/235 221/347/221 218/324/218
f 241/345/241 238/322/238 243/349/243
f 309/281/309 205/421/205 310/422/310
f 208/423/208 515/175/515 205/421/205
f 312/424/312 328/177/328 516/178/516
f 313/425/313 253/426/253 252/427/252
f 313/428/313 338/185/338 336/182/336
f 314/429/314 335/430/335 338/431/338
f 316/432/316 251/433/251 250/434/250
f 317/435/317 250/434/250 240/436/240
f 318/289/318 240/436/240 236/437/236
f 186/438/186 191/292/191 192/286/192
f 471/439/471 482/287/482 193/285/193
f 178/304/178 186/438/186 179/302/179
f 179/302/179 187/440/187 180/299/180
f 228/316/228 246/415/246 229/314/229
f 229/314/229 249/441/249 227/312/227
f 246/415/246 171/274/171 249/441/249
f 249/441/249 465/270/465 481/442/481
f 321/443/321 169/197/169 333/226/333
f 227/312/227 481/442/481 466/309/466
f 226/444/226 321/443/321 320/445/320
f 472/446/472 181/296/181 474/447/474
f 306/293/306 188/448/188 307/449/307
f 188/448/188 471/439/471 194/284/194
f 308/282/308 324/202/324 307/449/307
f 243/349/243 239/321/239 244/342/244
f 244/342/244 237/319/237 242/344/242
f 205/421/205 199/283/199 204/450/204
f 208/423/208 204/450/204 271/451/271
f 253/426/253 271/451/271 266/397/266
f 252/427/252 266/397/266 265/396/265
f 265/402/265 297/452/297 252/453/252
f 264/351/264 297/452/297 298/353/298
f 264/351/264 250/434/250 251/433/251
f 483/454/483 468/391/468 242/344/242
f 483/454/483 237/319/237 475/320/475
f 200/455/200 308/282/308 194/284/194
f 231/456/231 320/445/320 319/288/319
f 236/437/236 319/288/319 318/289/318
f 181/296/181 305/294/305 177/297/177
f 177/297/177 451/329/451 440/331/440
f 326/457/326 310/458/310 327/215/327
f 327/215/327 310/458/310 515/214/515
f 520/216/520 516/178/516 311/459/311
f 337/217/337 313/425/313 336/218/336
f 252/453/252 314/460/314 313/428/313
f 297/452/297 315/461/315 314/460/314
f 335/220/335 316/432/316 334/221/334
f 332/222/332 316/432/316 317/435/317
f 331/223/331 317/435/317 318/289/318
f 247/462/247 322/463/322 321/443/321
f 320/445/320 333/226/333 329/33/329
f 182/227/182 307/449/307 324/202/324
f 194/284/194 307/449/307 188/448/188
f 454/394/454 258/464/258 452/465/452
f 211/466/211 257/393/257 212/417/212
f 212/417/212 214/467/214 211/466/211
f 215/317/215 217/468/217 214/467/214
f 218/324/218 220/469/220 217/468/217
f 402/470/402 415/471/415 223/472/223
f 283/374/283 292/410/292 279/473/279
f 291/474/291 276/262/276 278/475/278
f 222/408/222 385/476/385 393/387/393
f 216/383/216 201/477/201 195/328/195
f 213/381/213 195/328/195 189/339/189
f 210/380/210 189/339/189 183/307/183
f 255/337/255 210/380/210 183/307/183
f 256/378/256 441/478/441 449/376/449
f 403/479/403 275/361/275 420/480/420
f 394/481/394 224/343/224 420/480/420
f 409/482/409 259/341/259 394/481/394
f 409/482/409 283/374/283 413/483/413
f 415/471/415 262/346/262 413/483/413
f 222/408/222 276/262/276 207/280/207
f 207/280/207 164/261/164 166/265/166
f 412/263/412 386/484/386 209/340/209
f 389/485/389 277/486/277 273/356/273
f 395/487/395 273/356/273 274/488/274
f 487/489/487 274/488/274 467/490/467
f 426/491/426 269/492/269 270/395/270
f 425/493/425 299/354/299 269/403/269
f 404/494/404 299/354/299 424/495/424
f 396/496/396 268/352/268 404/494/404
f 403/479/403 477/390/477 486/497/486
f 417/498/417 422/499/422 125/500/125
f 3/3/3 405/501/405 397/502/397
f 127/1/127 139/503/139 129/240/129
f 129/164/129 140/504/140 130/162/130
f 140/504/140 134/238/134 130/162/130
f 134/238/134 142/157/142 133/118/133
f 131/112/131 133/118/133 142/157/142
f 390/505/390 131/112/131 416/506/416
f 296/373/296 304/406/304 303/412/303
f 288/362/288 344/507/344 358/508/358
f 344/507/344 294/509/294 342/510/342
f 345/511/345 341/512/341 287/358/287
f 345/511/345 290/357/290 370/513/370
f 289/260/289 300/514/300 340/515/340
f 289/260/289 301/516/301 300/514/300
f 291/411/291 302/517/302 301/518/301
f 302/517/302 296/373/296 303/412/303
f 421/519/421 286/399/286 377/398/377
f 378/520/378 301/518/301 302/517/302
f 371/5/371 380/248/380 115/110/115
f 108/145/108 376/521/376 110/152/110
f 121/123/121 365/247/365 372/235/372
f 371/5/371 364/4/364 5/77/5
f 364/4/364 39/241/39 5/77/5
f 301/516/301 362/522/362 300/514/300
f 407/523/407 361/254/361 401/524/401
f 365/247/365 99/100/99 100/96/100
f 163/359/163 370/513/370 290/357/290
f 358/508/358 293/360/293 288/362/288
f 356/413/356 302/517/302 303/412/303
f 375/244/375 98/525/98 62/94/62
f 58/234/58 353/236/353 372/235/372
f 467/490/467 351/526/351 485/527/485
f 500/114/500 497/528/497 122/529/122
f 497/528/497 350/258/350 509/259/509
f 401/530/401 349/256/349 388/531/388
f 355/257/355 123/121/123 400/120/400
f 494/106/494 348/250/348 41/107/41
f 375/244/375 118/117/118 113/111/113
f 347/245/347 120/124/120 118/117/118
f 57/242/57 353/138/353 58/135/58
f 57/242/57 379/23/379 346/136/346
f 382/532/382 343/404/343 304/406/304
f 284/533/284 363/363/363 342/510/342
f 273/356/273 341/512/341 351/526/351
f 300/514/300 362/522/362 340/515/340
f 40/20/40 380/248/380 47/91/47
f 41/107/41 339/249/339 40/20/40
f 374/534/374 425/535/425 426/491/426
f 369/536/369 424/495/424 425/493/425
f 270/395/270 421/519/421 426/491/426
f 132/537/132 423/538/423 418/539/418
f 415/471/415 283/374/283 279/473/279
f 261/348/261 413/483/413 262/346/262
f 165/327/165 408/264/408 412/263/412
f 376/521/376 410/148/410 124/150/124
f 139/540/139 411/541/411 140/504/140
f 422/499/422 128/109/128 125/500/125
f 424/495/424 368/368/368 404/494/404
f 260/542/260 420/480/420 224/343/224
f 415/471/415 402/470/402 220/469/220
f 398/543/398 138/544/138 127/1/127
f 476/364/476 284/533/284 473/545/473
f 473/545/473 486/497/486 396/496/396
f 470/355/470 395/487/395 487/489/487
f 280/367/280 420/480/420 275/361/275
f 282/372/282 394/481/394 280/367/280
f 402/388/402 219/546/219 220/384/220
f 418/539/418 392/115/392 122/529/122
f 138/544/138 398/543/398 391/547/391
f 139/503/139 391/547/391 406/548/406
f 126/113/126 423/538/423 132/537/132
f 203/279/203 389/485/389 395/487/395
f 140/504/140 387/166/387 141/165/141
f 277/486/277 412/263/412 166/265/166
f 202/278/202 386/484/386 389/485/389
f 201/477/201 408/264/408 165/327/165
f 219/546/219 385/476/385 201/477/201
f 417/498/417 125/500/125 111/108/111
f 491/549/491 383/550/383 112/252/112
f 170/551/170 455/552/455 322/463/322
f 446/553/446 160/198/160 169/197/169
f 322/463/322 446/553/446 169/197/169
f 436/8/436 438/143/438 86/169/86
f 167/306/167 433/335/433 434/336/434
f 248/416/248 435/392/435 431/266/431
f 7/55/7 429/86/429 92/51/92
f 462/554/462 9/225/9 160/198/160
f 432/333/432 479/295/479 489/330/489
f 482/287/482 199/283/199 193/285/193
f 486/497/486 267/350/267 396/496/396
f 484/365/484 285/370/285 367/369/367
f 475/320/475 231/456/231 236/437/236
f 240/436/240 475/320/475 236/437/236
f 176/300/176 474/447/474 479/295/479
f 281/371/281 486/497/486 473/545/473
f 473/545/473 396/496/396 404/494/404
f 187/440/187 474/447/474 180/299/180
f 192/286/192 482/287/482 471/439/471
f 187/440/187 471/439/471 472/446/472
f 272/401/272 487/489/487 421/519/421
f 478/277/478 204/450/204 199/283/199
f 470/355/470 271/451/271 469/276/469
f 468/391/468 260/542/260 242/344/242
f 250/434/250 468/391/468 483/454/483
f 467/490/467 381/400/381 286/399/286
f 421/519/421 467/490/467 286/399/286
f 480/310/480 226/444/226 231/456/231
f 466/309/466 247/462/247 226/444/226
f 458/555/458 465/270/465 171/274/171
f 481/442/481 170/551/170 247/462/247
f 328/177/328 327/212/327 515/175/515
f 328/177/328 337/217/337 150/181/150
f 208/423/208 253/426/253 312/424/312
f 520/216/520 208/423/208 516/178/516
f 46/174/46 519/216/519 518/178/518
f 91/180/91 46/174/46 150/181/150
f 85/224/85 506/195/506 490/58/490
f 64/199/64 490/58/490 505/60/505
f 376/521/376 124/150/124 491/549/491
f 414/149/414 512/556/512 491/549/491
f 508/207/508 492/141/492 88/190/88
f 88/190/88 78/191/78 508/207/508
f 98/525/98 501/139/501 492/141/492
f 109/153/109 110/152/110 494/106/494
f 42/204/42 109/153/109 493/17/493
f 42/204/42 493/17/493 503/19/503
f 110/152/110 376/521/376 510/251/510
f 495/193/495 507/31/507 30/30/30
f 24/192/24 25/557/25 495/193/495
f 19/46/19 502/45/502 496/200/496
f 123/121/123 355/257/355 497/528/497
f 500/114/500 123/121/123 497/528/497
f 497/528/497 509/259/509 119/122/119
f 119/122/119 122/529/122 497/528/497
f 9/225/9 498/10/498 506/195/506
f 10/15/10 498/10/498 514/12/514
f 78/191/78 74/209/74 499/71/499
f 69/208/69 505/60/505 499/71/499
f 123/121/123 500/114/500 511/116/511
f 105/102/105 501/139/501 509/259/509
f 15/48/15 504/43/504 502/45/502
f 37/28/37 503/19/503 507/31/507
f 437/84/437 513/81/513 504/43/504
f 481/442/481 465/270/465 170/551/170
f 458/555/458 488/271/488 465/270/465
f 466/309/466 481/442/481 247/462/247
f 480/310/480 466/309/466 226/444/226
f 421/519/421 487/489/487 467/490/467
f 467/490/467 485/527/485 381/400/381
f 250/434/250 263/389/263 468/391/468
f 483/454/483 240/436/240 250/434/250
f 468/391/468 477/390/477 260/542/260
f 271/451/271 204/450/204 469/276/469
f 272/401/272 271/451/271 470/355/470
f 478/277/478 469/276/469 204/450/204
f 272/401/272 470/355/470 487/489/487
f 186/438/186 192/286/192 471/439/471
f 471/439/471 187/440/187 186/438/186
f 187/440/187 472/446/472 474/447/474
f 476/364/476 473/545/473 404/494/404
f 404/494/404 285/370/285 476/364/476
f 281/371/281 403/479/403 486/497/486
f 473/545/473 284/533/284 281/371/281
f 176/300/176 180/299/180 474/447/474
f 240/436/240 483/454/483 475/320/475
f 475/320/475 480/310/480 231/456/231
f 484/365/484 476/364/476 285/370/285
f 486/497/486 477/390/477 267/350/267
f 482/287/482 478/277/478 199/283/199
f 432/333/432 176/300/176 479/295/479
f 462/554/462 427/11/427 9/225/9
f 7/55/7 430/87/430 429/86/429
f 245/414/245 248/416/248 431/266/431
f 172/268/172 245/414/245 431/266/431
f 167/306/167 254/303/254 433/335/433
f 83/167/83 11/9/11 436/8/436
f 86/169/86 83/167/83 436/8/436
f 322/463/322 455/552/455 446/553/446
f 446/553/446 462/554/462 160/198/160
f 170/551/170 463/269/463 455/552/455
f 491/549/491 512/556/512 383/550/383
f 383/550/383 417/498/417 111/108/111
f 111/108/111 112/252/112 383/550/383
f 219/546/219 393/387/393 385/476/385
f 201/477/201 385/476/385 408/264/408
f 202/278/202 209/340/209 386/484/386
f 277/486/277 386/484/386 412/263/412
f 166/265/166 164/261/164 277/486/277
f 140/504/140 411/541/411 387/166/387
f 203/279/203 202/278/202 389/485/389
f 126/113/126 390/505/390 423/538/423
f 139/503/139 138/544/138 391/547/391
f 119/122/119 132/537/132 418/539/418
f 122/529/122 119/122/119 418/539/418
f 402/388/402 393/387/393 219/546/219
f 282/372/282 409/482/409 394/481/394
f 280/367/280 394/481/394 420/480/420
f 470/355/470 203/279/203 395/487/395
f 397/502/397 398/543/398 127/1/127
f 127/1/127 3/3/3 397/502/397
f 221/347/221 262/346/262 415/471/415
f 220/469/220 221/347/221 415/471/415
f 260/542/260 403/479/403 420/480/420
f 368/368/368 285/370/285 404/494/404
f 357/558/357 368/368/368 424/495/424
f 422/499/422 405/501/405 128/109/128
f 139/540/139 406/559/406 411/541/411
f 366/253/366 407/523/407 410/148/410
f 376/521/376 366/253/366 410/148/410
f 206/325/206 165/327/165 412/263/412
f 209/340/209 206/325/206 412/263/412
f 261/348/261 409/482/409 413/483/413
f 415/471/415 413/483/413 283/374/283
f 279/473/279 223/472/223 415/471/415
f 270/395/270 272/401/272 421/519/421
f 369/536/369 357/558/357 424/495/424
f 374/534/374 369/560/369 425/535/425
f 41/107/41 348/250/348 339/249/339
f 40/20/40 339/249/339 380/248/380
f 273/356/273 287/358/287 341/512/341
f 351/526/351 274/488/274 273/356/273
f 281/371/281 284/533/284 342/510/342
f 294/509/294 281/371/281 342/510/342
f 293/360/293 382/532/382 304/406/304
f 295/366/295 293/360/293 304/406/304
f 57/242/57 39/241/39 379/23/379
f 57/242/57 346/136/346 353/138/353
f 347/245/347 360/246/360 120/124/120
f 375/244/375 347/245/347 118/117/118
f 494/106/494 510/251/510 348/250/348
f 349/256/349 355/257/355 400/120/400
f 400/120/400 388/531/388 349/256/349
f 401/530/401 361/255/361 349/256/349
f 467/490/467 274/488/274 351/526/351
f 59/98/59 58/234/58 372/235/372
f 100/96/100 59/98/59 372/235/372
f 375/244/375 354/243/354 98/525/98
f 356/413/356 378/520/378 302/517/302
f 358/508/358 382/532/382 293/360/293
f 163/359/163 359/561/359 370/513/370
f 365/247/365 360/246/360 99/100/99
f 407/523/407 366/253/366 361/254/361
f 301/516/301 373/562/373 362/522/362
f 364/4/364 379/23/379 39/241/39
f 44/39/44 47/91/47 371/5/371
f 5/77/5 44/39/44 371/5/371
f 117/563/117 121/123/121 372/235/372
f 372/235/372 61/237/61 117/563/117
f 108/145/108 366/253/366 376/521/376
f 6/6/6 371/5/371 115/110/115
f 115/110/115 4/2/4 6/6/6
f 378/520/378 373/564/373 301/518/301
f 426/491/426 421/519/421 377/398/377
f 374/534/374 426/491/426 377/398/377
f 302/517/302 292/410/292 296/373/296
f 291/411/291 292/410/292 302/517/302
f 289/260/289 291/474/291 301/516/301
f 359/561/359 163/359/163 289/260/289
f 340/515/340 359/561/359 289/260/289
f 345/511/345 287/358/287 290/357/290
f 288/362/288 294/509/294 344/507/344
f 296/373/296 295/366/295 304/406/304
f 390/505/390 126/113/126 131/112/131
f 416/506/416 131/112/131 142/157/142
f 419/156/419 416/506/416 142/157/142
f 134/238/134 141/165/141 142/157/142
f 140/504/140 141/165/141 134/238/134
f 129/164/129 139/540/139 140/504/140
f 127/1/127 138/544/138 139/503/139
f 3/3/3 128/109/128 405/501/405
f 403/479/403 260/542/260 477/390/477
f 396/496/396 267/350/267 268/352/268
f 404/494/404 268/352/268 299/354/299
f 425/493/425 424/495/424 299/354/299
f 426/491/426 425/535/425 269/492/269
f 487/489/487 395/487/395 274/488/274
f 395/487/395 389/485/389 273/356/273
f 389/485/389 386/484/386 277/486/277
f 207/280/207 276/262/276 164/261/164
f 222/408/222 278/475/278 276/262/276
f 409/482/409 282/372/282 283/374/283
f 409/482/409 261/348/261 259/341/259
f 394/481/394 259/341/259 224/343/224
f 403/479/403 281/371/281 275/361/275
f 256/378/256 255/337/255 441/478/441
f 255/337/255 256/378/256 210/380/210
f 210/380/210 213/381/213 189/339/189
f 213/381/213 216/383/216 195/328/195
f 216/383/216 219/546/219 201/477/201
f 222/408/222 207/280/207 385/476/385
f 291/474/291 289/260/289 276/262/276
f 283/374/283 296/373/296 292/410/292
f 218/324/218 221/347/221 220/469/220
f 215/317/215 218/324/218 217/468/217
f 437/84/437 504/43/504 15/48/15
f 212/417/212 215/317/215 214/467/214
f 211/466/211 258/464/258 257/393/257
f 454/394/454 257/393/257 258/464/258
f 37/28/37 507/31/507 31/29/31
f 194/284/194 308/282/308 307/449/307
f 182/227/182 306/293/306 307/449/307
f 320/445/320 321/443/321 333/226/333
f 247/462/247 170/551/170 322/463/322
f 331/223/331 332/222/332 317/435/317
f 332/222/332 334/221/334 316/432/316
f 335/220/335 315/461/315 316/432/316
f 297/452/297 251/433/251 315/461/315
f 252/453/252 297/452/297 314/460/314
f 337/217/337 312/424/312 313/425/313
f 326/211/326 309/281/309 310/422/310
f 177/297/177 305/294/305 451/329/451
f 181/296/181 306/293/306 305/294/305
f 236/437/236 231/456/231 319/288/319
f 231/456/231 226/444/226 320/445/320
f 200/455/200 309/281/309 308/282/308
f 15/48/15 502/45/502 19/46/19
f 483/454/483 242/344/242 237/319/237
f 264/351/264 263/389/263 250/434/250
f 264/351/264 251/433/251 297/452/297
f 265/402/265 298/353/298 297/452/297
f 105/102/105 509/259/509 350/258/350
f 123/121/123 511/116/511 399/119/399
f 252/427/252 253/426/253 266/397/266
f 253/426/253 208/423/208 271/451/271
f 69/208/69 499/71/499 74/209/74
f 78/191/78 499/71/499 508/207/508
f 10/15/10 514/12/514 460/16/460
f 9/225/9 506/195/506 85/224/85
f 208/423/208 205/421/205 204/450/204
f 205/421/205 200/455/200 199/283/199
f 244/342/244 239/321/239 237/319/237
f 509/259/509 354/243/354 119/122/119
f 355/257/355 350/258/350 497/528/497
f 19/46/19 496/200/496 25/557/25
f 495/193/495 30/30/30 24/192/24
f 25/557/25 496/200/496 495/193/495
f 243/349/243 238/322/238 239/321/239
f 110/152/110 510/251/510 494/106/494
f 308/282/308 325/24/325 324/202/324
f 471/439/471 193/285/193 194/284/194
f 42/204/42 503/19/503 37/28/37
f 493/17/493 109/153/109 494/106/494
f 472/446/472 471/439/471 188/448/188
f 306/293/306 181/296/181 188/448/188
f 472/446/472 188/448/188 181/296/181
f 226/444/226 247/462/247 321/443/321
f 227/312/227 249/441/249 481/442/481
f 321/443/321 322/463/322 169/197/169
f 249/441/249 171/274/171 465/270/465
f 246/415/246 173/272/173 171/274/171
f 229/314/229 246/415/246 249/441/249
f 228/316/228 245/414/245 246/415/246
f 98/525/98 492/141/492 80/95/80
f 492/141/492 101/140/101 88/190/88
f 414/149/414 491/549/491 124/150/124
f 376/521/376 491/549/491 510/251/510
f 64/199/64 505/60/505 69/208/69
f 85/224/85 490/58/490 64/199/64
f 179/302/179 186/438/186 187/440/187
f 178/304/178 185/420/185 186/438/186
f 186/438/186 185/420/185 191/292/191
f 318/289/318 317/435/317 240/436/240
f 317/435/317 316/432/316 250/434/250
f 316/432/316 315/461/315 251/433/251
f 314/460/314 315/461/315 335/220/335
f 313/428/313 314/460/314 338/185/338
f 313/425/313 312/424/312 253/426/253
f 312/424/312 337/217/337 328/177/328
f 515/175/515 310/422/310 205/421/205
f 520/216/520 515/175/515 208/423/208
f 309/281/309 200/455/200 205/421/205
f 241/345/241 235/323/235 238/322/238
f 235/323/235 241/345/241 221/347/221
f 190/419/190 196/291/196 191/292/191
f 162/326/162 196/291/196 190/419/190
f 190/419/190 185/420/185 178/304/178
f 161/338/161 190/419/190 184/418/184
f 225/318/225 248/416/248 245/414/245
f 248/416/248 225/318/225 212/417/212
f 245/414/245 172/268/172 173/272/173
f 303/412/303 304/406/304 352/405/352
f 278/475/278 279/407/279 292/565/292
f 279/407/279 278/475/278 222/408/222
f 299/354/299 298/353/298 265/402/265
f 266/397/266 271/451/271 272/401/272
f 270/395/270 269/492/269 265/396/265
f 435/392/435 248/416/248 257/393/257
f 263/389/263 267/350/267 477/390/477
f 223/386/223 222/408/222 393/387/393
f 220/384/220 219/546/219 216/383/216
f 214/382/214 217/385/217 216/383/216
f 211/379/211 214/382/214 213/381/213
f 256/378/256 258/375/258 211/379/211
f 258/375/258 256/378/256 449/376/449
f 282/372/282 295/366/295 296/373/296
f 281/371/281 294/509/294 288/362/288
f 295/366/295 282/372/282 280/367/280
f 363/363/363 284/533/284 476/364/476
f 293/360/293 280/367/280 275/361/275
f 290/357/290 277/486/277 164/261/164
f 273/356/273 277/486/277 290/357/290
f 268/352/268 264/351/264 298/353/298
f 267/350/267 263/389/263 264/351/264
f 261/348/261 241/345/241 243/349/243
f 241/345/241 261/348/261 262/346/262
f 242/344/242 260/542/260 224/343/224
f 259/341/259 243/349/243 244/342/244
f 202/278/202 197/290/197 206/325/206
f 189/339/189 195/328/195 162/326/162
f 183/307/183 189/339/189 161/338/161
f 434/336/434 441/478/441 255/337/255
f 433/335/433 254/303/254 174/301/174
f 459/334/459 174/301/174 175/298/175
f 464/332/464 175/298/175 176/300/176
f 489/330/489 479/295/479 177/297/177
f 305/294/305 323/40/323 443/79/443
f 195/328/195 201/477/201 165/327/165
f 206/325/206 196/291/196 162/326/162
f 230/315/230 235/323/235 218/324/218
f 235/323/235 230/315/230 233/313/233
f 238/322/238 233/313/233 234/311/234
f 239/321/239 234/311/234 232/308/232
f 237/319/237 232/308/232 480/310/480
f 215/317/215 212/417/212 225/318/225
f 230/315/230 225/318/225 228/316/228
f 233/313/233 228/316/228 229/314/229
f 234/311/234 229/314/229 227/312/227
f 232/308/232 227/312/227 466/309/466
f 167/306/167 255/337/255 183/307/183
f 168/305/168 184/418/184 254/303/254
f 254/303/254 184/418/184 178/304/178
f 174/301/174 178/304/178 179/302/179
f 175/298/175 179/302/179 180/299/180
f 479/295/479 474/447/474 181/296/181
f 306/293/306 182/227/182 323/40/323
f 196/291/196 206/325/206 197/290/197
f 192/286/192 191/292/191 197/290/197
f 318/289/318 319/288/319 330/36/330
f 319/288/319 320/445/320 329/33/329
f 192/286/192 198/275/198 478/277/478
f 199/283/199 200/455/200 194/284/194
f 309/281/309 326/211/326 325/24/325
f 408/264/408 385/476/385 207/280/207
f 198/275/198 197/290/197 202/278/202
f 198/275/198 203/279/203 469/276/469
f 439/273/439 458/555/458 171/274/171
f 447/267/447 439/273/439 173/272/173
f 463/269/463 170/551/170 465/270/465
f 289/260/289 163/359/163 164/261/164
f 501/139/501 98/525/98 354/243/354
f 106/103/106 105/102/105 350/258/350
f 137/105/137 106/103/106 355/257/355
f 361/255/361 107/155/107 137/105/137
f 366/253/366 108/145/108 107/147/107
f 510/251/510 491/549/491 112/252/112
f 348/250/348 112/252/112 111/108/111
f 339/249/339 111/108/111 115/110/115
f 4/2/4 114/239/114 45/22/45
f 114/239/114 116/161/116 60/160/60
f 121/123/121 120/124/120 360/246/360
f 97/93/97 99/100/99 360/246/360
f 62/94/62 97/93/97 347/245/347
f 113/111/113 119/122/119 354/243/354
f 445/88/445 93/57/93 94/129/94
f 48/130/48 94/129/94 93/57/93
f 48/130/48 21/56/21 27/90/27
f 51/131/51 27/90/27 33/78/33
f 54/133/54 33/78/33 39/241/39
f 379/23/379 45/22/45 60/160/60
f 114/239/114 127/1/127 129/240/129
f 121/123/121 117/563/117 130/162/130
f 56/75/56 55/233/55 58/234/58
f 53/67/53 52/232/52 55/233/55
f 50/69/50 49/230/49 52/232/52
f 49/230/49 50/69/50 95/142/95
f 453/229/453 96/231/96 95/142/95
f 32/27/32 26/201/26 145/228/145
f 182/227/182 324/202/324 145/228/145
f 333/226/333 159/196/159 158/34/158
f 85/224/85 159/196/159 160/198/160
f 331/223/331 156/35/156 155/189/155
f 332/222/332 155/189/155 154/187/154
f 154/187/154 153/186/153 335/220/335
f 135/206/135 152/183/152 153/186/153
f 90/219/90 151/184/151 152/183/152
f 151/179/151 150/181/150 337/217/337
f 328/213/328 149/566/149 517/214/517
f 148/173/148 147/25/147 326/211/326
f 456/80/456 143/42/143 16/82/16
f 143/42/143 144/41/144 20/44/20
f 74/209/74 156/35/156 157/32/157
f 69/208/69 157/32/157 158/34/158
f 146/26/146 147/25/147 38/203/38
f 508/207/508 499/71/499 75/70/75
f 102/101/102 89/188/89 88/190/88
f 135/206/135 89/188/89 102/101/102
f 103/154/103 90/219/90 135/206/135
f 90/205/90 103/146/103 104/151/104
f 91/180/91 104/151/104 109/153/109
f 46/174/46 109/153/109 42/204/42
f 43/172/43 42/204/42 37/28/37
f 75/70/75 77/72/77 82/92/82
f 77/72/77 76/73/76 81/99/81
f 146/26/146 145/228/145 324/202/324
f 26/201/26 32/27/32 495/193/495
f 495/193/495 496/200/496 26/201/26
f 144/41/144 145/228/145 26/201/26
f 20/44/20 26/201/26 496/200/496
f 159/196/159 85/224/85 64/199/64
f 506/195/506 87/194/87 65/61/65
f 159/196/159 333/226/333 169/197/169
f 498/10/498 10/15/10 87/194/87
f 10/15/10 12/13/12 84/168/84
f 87/194/87 84/168/84 67/63/67
f 84/168/84 83/167/83 66/65/66
f 19/46/19 25/557/25 24/192/24
f 18/49/18 24/192/24 23/171/23
f 24/192/24 30/30/30 29/37/29
f 156/35/156 74/209/74 78/191/78
f 155/189/155 78/191/78 88/190/88
f 154/187/154 88/190/88 89/188/89
f 338/431/338 335/430/335 153/567/153
f 336/218/336 338/431/338 152/568/152
f 151/179/151 90/205/90 91/180/91
f 46/174/46 43/172/43 148/173/148
f 517/175/517 519/216/519 46/174/46
f 43/172/43 38/203/38 147/25/147
f 76/73/76 73/74/73 79/97/79
f 59/98/59 79/97/79 73/74/73
f 23/171/23 29/37/29 34/38/34
f 1/89/1 28/170/28 34/38/34
f 17/52/17 23/171/23 28/170/28
f 1/89/1 8/54/8 22/53/22
f 83/167/83 86/169/86 63/68/63
f 86/169/86 95/142/95 50/69/50
f 12/13/12 11/9/11 83/167/83
f 384/158/384 142/157/142 141/165/141
f 130/569/130 117/159/117 116/161/116
f 117/159/117 61/137/61 60/160/60
f 103/154/103 136/104/136 137/105/137
f 104/151/104 108/145/108 110/152/110
f 108/145/108 104/151/104 103/146/103
f 95/142/95 86/169/86 438/143/438
f 501/139/501 105/102/105 101/140/101
f 346/136/346 60/160/60 61/137/61
f 54/133/54 57/242/57 58/135/58
f 52/132/52 51/131/51 54/133/54
f 49/128/49 48/130/48 51/131/51
f 49/128/49 96/126/96 94/129/94
f 450/125/450 94/129/94 96/126/96
f 121/123/121 134/238/134 133/118/133
f 126/113/126 132/537/132 119/122/119
f 118/117/118 120/124/120 133/118/133
f 500/114/500 122/529/122 392/115/392
f 113/111/113 118/117/118 131/112/131
f 4/2/4 115/110/115 128/109/128
f 111/108/111 125/500/125 128/109/128
f 136/104/136 102/101/102 106/103/106
f 102/101/102 101/140/101 105/102/105
f 81/99/81 79/97/79 99/100/99
f 100/96/100 99/100/99 79/97/79
f 62/94/62 98/525/98 80/95/80
f 82/92/82 81/99/81 97/93/97
f 44/39/44 35/21/35 40/20/40
f 2/76/2 33/78/33 27/90/27
f 1/89/1 27/90/27 21/56/21
f 430/87/430 7/55/7 93/57/93
f 429/86/429 461/85/461 13/50/13
f 14/47/14 13/50/13 461/85/461
f 15/48/15 14/47/14 428/83/428
f 513/81/513 444/210/444 16/82/16
f 443/79/443 323/40/323 143/42/143
f 5/77/5 39/241/39 33/78/33
f 2/76/2 34/38/34 44/39/44
f 68/66/68 53/67/53 56/75/56
f 71/64/71 68/66/68 73/74/73
f 72/62/72 71/64/71 76/73/76
f 70/59/70 72/62/72 77/72/77
f 505/60/505 70/59/70 75/70/75
f 53/67/53 68/66/68 63/68/63
f 66/65/66 63/68/63 68/66/68
f 67/63/67 66/65/66 71/64/71
f 65/61/65 67/63/67 72/62/72
f 490/58/490 65/61/65 70/59/70
f 7/55/7 8/54/8 21/56/21
f 8/54/8 7/55/7 92/51/92
f 92/51/92 13/50/13 17/52/17
f 18/49/18 17/52/17 13/50/13
f 19/46/19 18/49/18 14/47/14
f 504/43/504 16/82/16 20/44/20
f 323/40/323 182/227/182 144/41/144
f 34/38/34 29/37/29 35/21/35
f 30/30/30 36/18/36 35/21/35
f 156/35/156 331/223/331 330/36/330
f 157/32/157 330/36/330 329/33/329
f 503/19/503 36/18/36 30/30/30
f 32/27/32 38/203/38 37/28/37
f 325/24/325 326/211/326 147/25/147
f 364/4/364 6/6/6 45/22/45
f 36/18/36 41/107/41 40/20/40
f 493/17/493 41/107/41 36/18/36
f 442/14/442 12/13/12 10/15/10
f 448/7/448 11/9/11 12/13/12
f 498/10/498 9/225/9 427/11/427
f 127/1/127 114/239/114 4/2/4
f 150/181/150 46/174/46 518/178/518
f 149/176/149 519/216/519 517/175/517
f 516/178/516 208/423/208 312/424/312
f 311/459/311 515/175/515 520/216/520
f 311/459/311 516/178/516 328/177/328
f 328/177/328 150/181/150 518/178/518
f 328/213/328 515/214/515 311/570/311
f 327/212/327 517/175/517 148/173/148
